<svg id="Group_12" data-name="Group 12" xmlns="http://www.w3.org/2000/svg" width="145.282" height="22.971" viewBox="0 0 145.282 22.971">
  <path id="Path_3" data-name="Path 3" d="M362.865,302.077l10.469-22.182,10.439,22.182h-4.035l-1.882-4.1h-9.1l-1.881,4.1Zm7.313-7.374h6.252l-3.126-6.888Z" transform="translate(-362.865 -279.895)"/>
  <path id="Path_4" data-name="Path 4" d="M427.227,302.262v-21.15H440.7v3.429h-9.68v5.037h9.073v3.43H431.02v5.826h9.893v3.429Z" transform="translate(-372.641 -280.08)"/>
  <path id="Path_5" data-name="Path 5" d="M452.914,302.121V280.182l14.414,14.141V280.971h3.794V302.91l-14.414-14.08v13.291Z" transform="translate(-376.542 -279.939)"/>
  <path id="Path_6" data-name="Path 6" d="M501.387,282.9v4.036a8.91,8.91,0,0,0-6.585-2.822,7.511,7.511,0,1,0,0,15.021,8.911,8.911,0,0,0,6.585-2.823v4.036a9.935,9.935,0,0,1-6.585,2.215,11.212,11.212,0,0,1-7.981-3.1,11.063,11.063,0,0,1,0-15.658,11.109,11.109,0,0,1,7.981-3.125A10.046,10.046,0,0,1,501.387,282.9Z" transform="translate(-381.199 -280.015)"/>
  <path id="Path_7" data-name="Path 7" d="M519.383,302.262V294.07l-7.616-12.957h4.1l5.431,9.316,5.4-9.316h4.067l-7.617,12.957v8.193Z" transform="translate(-385.481 -280.08)"/>
  <path id="Path_8" data-name="Path 8" d="M411.713,283.907c-1.942-1.972-4.673-2.943-8.163-2.943h-7.556v11.357h0v.648h8.111v-3.48h-4.319v-5.1h3.489c5.311,0,7.586,2.731,7.586,7.192,0,4.339-2.306,7.1-7.556,7.1h-3.52v-2.349h-3.794v5.778h7.586c3.49,0,6.221-.971,8.163-2.883a11.488,11.488,0,0,0-.031-15.325Z" transform="translate(-367.897 -280.057)" fill="#f6921e"/>
</svg>
