<svg xmlns="http://www.w3.org/2000/svg" width="109.625" height="19.734" viewBox="0 0 109.625 19.734">
  <g id="Group_182" data-name="Group 182" transform="translate(-1125.819 -423.702)">
    <g id="Group_178" data-name="Group 178" transform="translate(1132.075 428.253)">
      <path id="Path_83" data-name="Path 83" d="M1135.024,432.521l.258-2H1133.3v-1.275c0-.578.162-.974.991-.974h1.056v-1.788a14.136,14.136,0,0,0-1.542-.079,2.409,2.409,0,0,0-2.571,2.643v1.473h-1.726v2h1.726v5.129h2.064v-5.129Z" transform="translate(-1129.513 -426.405)"/>
    </g>
    <circle id="Ellipse_23" data-name="Ellipse 23" cx="9.729" cy="9.729" r="9.729" transform="translate(1125.957 423.84)" fill="none" stroke="#000" stroke-miterlimit="10" stroke-width="0.276"/>
    <g id="Group_180" data-name="Group 180" transform="translate(1160.664 428.451)">
      <g id="Group_179" data-name="Group 179">
        <path id="Path_84" data-name="Path 84" d="M1153.2,436.757h-4.17a2.909,2.909,0,0,1-2.9-2.9v-4.441a2.908,2.908,0,0,1,2.9-2.9h4.17a2.908,2.908,0,0,1,2.9,2.9v4.441a2.909,2.909,0,0,1-2.9,2.9m0-.766a2.141,2.141,0,0,0,2.134-2.133v-4.441a2.138,2.138,0,0,0-2.134-2.132h-4.17a2.138,2.138,0,0,0-2.134,2.132v4.441a2.141,2.141,0,0,0,2.134,2.133Z" transform="translate(-1146.13 -426.52)"/>
        <path id="Path_85" data-name="Path 85" d="M1152.933,430.621a2.746,2.746,0,1,1-2.746-2.744,2.747,2.747,0,0,1,2.746,2.744m-2.76-1.794a1.8,1.8,0,1,0,1.8,1.8,1.8,1.8,0,0,0-1.8-1.8" transform="translate(-1145.185 -425.542)"/>
        <path id="Path_86" data-name="Path 86" d="M1151.58,428.124a.649.649,0,1,1-.651-.65.65.65,0,0,1,.651.65" transform="translate(-1143.139 -425.833)"/>
      </g>
    </g>
    <circle id="Ellipse_24" data-name="Ellipse 24" cx="9.729" cy="9.729" r="9.729" transform="translate(1155.921 423.84)" fill="none" stroke="#000" stroke-miterlimit="10" stroke-width="0.276"/>
    <path id="Path_87" data-name="Path 87" d="M1174.069,428.451a1.389,1.389,0,0,0-.979-.979,40.724,40.724,0,0,0-8.654,0,1.389,1.389,0,0,0-.979.979,15.413,15.413,0,0,0,0,5.332,1.386,1.386,0,0,0,.979.979,40.437,40.437,0,0,0,8.654,0,1.386,1.386,0,0,0,.979-.979,15.525,15.525,0,0,0,0-5.332Zm-6.414,4.327v-3.322l2.877,1.662Z" transform="translate(26.851 2.451)"/>
    <circle id="Ellipse_25" data-name="Ellipse 25" cx="9.729" cy="9.729" r="9.729" transform="translate(1185.885 423.84)" fill="none" stroke="#000" stroke-miterlimit="10" stroke-width="0.276"/>
    <g id="Group_181" data-name="Group 181" transform="translate(1221.158 429.285)">
      <path id="Path_88" data-name="Path 88" d="M1181.368,434.426h1.942V428.6h-1.942Z" transform="translate(-1181.236 -425.858)"/>
      <path id="Path_89" data-name="Path 89" d="M1182.863,427.11a1.25,1.25,0,0,0-.914-.036.915.915,0,0,0-.552.464.993.993,0,0,0-.089.637.921.921,0,0,0,.392.614,1.188,1.188,0,0,0,.65.2,1.064,1.064,0,0,0,.316-.048.933.933,0,0,0,.669-.538.978.978,0,0,0,.021-.757A.891.891,0,0,0,1182.863,427.11Z" transform="translate(-1181.291 -427.005)"/>
      <path id="Path_90" data-name="Path 90" d="M1188.852,430.682a3.012,3.012,0,0,0-.158-.773,2.073,2.073,0,0,0-.6-.908,2.014,2.014,0,0,0-1.161-.464,2.479,2.479,0,0,0-.638.022,1.722,1.722,0,0,0-.737.3,2.067,2.067,0,0,0-.507.552l-.031.043-.014,0v-.8h-1.972v5.827h1.979v-.055q0-1.654,0-3.308a1.85,1.85,0,0,1,.012-.194,1,1,0,0,1,.165-.432.963.963,0,0,1,.472-.4,1.025,1.025,0,0,1,.557-.045.7.7,0,0,1,.446.26,1,1,0,0,1,.177.385,2.4,2.4,0,0,1,.065.6v3.2h1.963v-.058q0-1.636,0-3.276C1188.872,430.99,1188.864,430.835,1188.852,430.682Z" transform="translate(-1180.035 -425.909)"/>
    </g>
    <circle id="Ellipse_26" data-name="Ellipse 26" cx="9.729" cy="9.729" r="9.729" transform="translate(1215.848 423.84)" fill="none" stroke="#000" stroke-miterlimit="10" stroke-width="0.276"/>
  </g>
</svg>
