<svg xmlns="http://www.w3.org/2000/svg" width="716.036" height="613.946" viewBox="0 0 716.036 613.946">
  <g id="Group_108" data-name="Group 108" transform="translate(0 -115.842)">
    <g id="Group_104" data-name="Group 104" transform="translate(0 569.632)">
      <path id="Path_38" data-name="Path 38" d="M33.33,320.423H75.81l32.925,152.843H72.966L68.494,444H40.445l-4.472,29.267H0Zm31.3,95.934L54.467,349.692,44.105,416.357Z" transform="translate(0 -316.767)" fill="#000002"/>
      <path id="Path_39" data-name="Path 39" d="M145.033,475.287H120.439l-1.623-9.555c-7.115,8.336-15.65,12.2-26.624,12.2-12.4,0-23.172-4.676-30.895-13.416-12.2-13.615-13.21-35.161-13.21-67.68,0-28.657,2.234-47.967,8.535-57.924,8.537-13.416,22.561-20.122,41.666-20.122,30.079,0,45.324,16.461,45.324,48.779,0,1.827-.2,3.658-.2,5.691H109.465v-1.829c0-16.868-3.048-24.592-11.99-24.592-12.4,0-13.21,12.4-13.21,39.428v25.611c0,26.828.608,38.819,12.6,38.819,9.959,0,13.823-7.929,13.823-24.8,0-2.44,0-4.879-.2-7.723H96.458V391.55h48.575Z" transform="translate(59.435 -318.788)" fill="#000002"/>
      <path id="Path_40" data-name="Path 40" d="M96.354,320.423H179.48V350.1H131.92v28.046h43.9v30.689h-43.9v33.334h47.56v31.1H96.354Z" transform="translate(119.095 -316.767)" fill="#000002"/>
      <path id="Path_41" data-name="Path 41" d="M136.167,320.423h37.194l29.672,94.306c-2.234-30.282-3.455-53.655-3.455-70.323V320.423h31.91V473.266h-37.4l-29.875-97.15a668.589,668.589,0,0,1,4.063,71.338v25.813H136.167Z" transform="translate(168.304 -316.767)" fill="#000002"/>
      <path id="Path_42" data-name="Path 42" d="M283.971,416.142c.2,2.641.2,5.08.2,7.723,0,36.99-15.853,55.08-49.8,55.08-19.916,0-33.94-6.5-42.681-19.918-7.52-11.585-8.535-31.3-8.535-60.16s1.015-48.575,8.535-60.162c8.537-13.21,22.561-19.916,42.073-19.916,33.536,0,50.2,18.7,50.2,55.688V375.9H249.217c-.2-19.717-3.658-28.252-14.838-28.252-14.834,0-15.039,14.635-15.039,48.374v2.844c0,35.769,0,51.419,15.039,51.419,11.79,0,14.431-8.331,14.431-27.436v-6.708Z" transform="translate(226.392 -318.788)" fill="#000002"/>
      <path id="Path_43" data-name="Path 43" d="M262.23,408.43l-35.164-88.007h38.415L280.319,368.8l14.838-48.374h38.819L298.813,408.43v64.835H262.23Z" transform="translate(280.656 -316.767)" fill="#000002"/>
    </g>
    <g id="Group_105" data-name="Group 105" transform="translate(0 115.842)">
      <path id="Path_44" data-name="Path 44" d="M0,115.842H83.332v29.676H35.975v27.843h43.9v30.692h-43.9v64.632H0Z" transform="translate(0 -115.842)" fill="#000002"/>
      <path id="Path_45" data-name="Path 45" d="M76.949,115.842v95.73c0,21.137.4,32.111,12.8,32.111,11.79,0,11.994-10.567,11.994-30.079V115.842h35.772V213.4c0,15.65-.407,28.455-6.1,39.023-7.517,14.024-21.137,19.918-42.681,19.918-19.918,0-32.518-5.489-40.242-18.9-6.912-12.2-7.316-30.079-7.316-55.281V115.842Z" transform="translate(50.895 -115.842)" fill="#000002"/>
      <path id="Path_46" data-name="Path 46" d="M89.536,268.685V115.842h35.772V237.79h42.884v30.895Z" transform="translate(110.668 -115.842)" fill="#000002"/>
      <path id="Path_47" data-name="Path 47" d="M126.806,268.685V115.842h35.772V237.79H205.46v30.895Z" transform="translate(156.734 -115.842)" fill="#000002"/>
    </g>
    <g id="Group_106" data-name="Group 106" transform="translate(0 265.534)">
      <path id="Path_48" data-name="Path 48" d="M33.129,287.458v4.472c0,15.853,3.05,22.968,13.009,22.968,7.517,0,12.193-5.487,12.193-14.635,0-12.6-8.334-16.26-19.916-23.983-13.009-8.741-22.968-15.243-28.455-22.966C4.879,246,2.236,236.649,2.236,225.67c0-26.828,16.462-42.882,43.493-42.882,29.676,0,45.53,15.446,45.53,43.7,0,1.623-.2,3.251-.2,4.877H58.939v-1.829c0-13.414-4.266-20.325-12.193-20.325-6.5,0-11.18,4.879-11.18,13.21,0,11.178,9.148,15.245,22.358,23.78,11.994,7.723,21.953,13.414,27.845,22.561,4.269,6.706,6.706,15.65,6.706,26.421,0,30.692-16.462,47.763-45.932,47.763C15.65,342.945,0,327.091,0,295.792c0-2.643.2-5.487.407-8.334Z" transform="translate(0 -182.788)" fill="#000002"/>
      <path id="Path_49" data-name="Path 49" d="M44.723,184.423h83.126V214.1H80.289v28.046h43.9v30.689h-43.9v33.334h47.56v31.1H44.723Z" transform="translate(55.278 -180.767)" fill="#000002"/>
      <path id="Path_50" data-name="Path 50" d="M85.446,184.423h40.242c20.325,0,33.943.816,43.09,8.13,8.942,7.318,13.007,17.682,13.007,31.912,0,17.477-5.892,29.064-18.9,36.787,16.665,7.316,16.868,17.477,17.479,35.363.608,19.717-.814,32.927,8.741,40.651H147.234a77.206,77.206,0,0,1-2.645-21.137c0-6.708.409-11.79.409-15.65,0-17.682-3.457-24.39-16.871-24.39h-7.316v61.177H85.446Zm39.837,63.82c14.635,0,20.325-5.284,20.325-19.511,0-13.21-5.691-18.089-20.325-18.089-1.422,0-2.846.2-4.472.2v37.2C122.436,248.042,123.861,248.243,125.283,248.243Z" transform="translate(105.612 -180.767)" fill="#000002"/>
      <path id="Path_51" data-name="Path 51" d="M122.443,184.423h37.8l13.21,80.284c.4,2.641,2.033,13.617,4.269,33.129,1.628-14.431,2.844-25.406,4.063-32.925l13.416-80.488h37.8L198.255,337.266H156.589Z" transform="translate(151.341 -180.767)" fill="#000002"/>
      <path id="Path_52" data-name="Path 52" d="M172.711,184.423h35.772V337.266H172.711Z" transform="translate(213.473 -180.767)" fill="#000002"/>
      <path id="Path_53" data-name="Path 53" d="M291.971,280.142c.2,2.641.2,5.08.2,7.723,0,36.99-15.853,55.08-49.8,55.08-19.916,0-33.94-6.5-42.681-19.918-7.52-11.585-8.535-31.3-8.535-60.16s1.015-48.575,8.535-60.162c8.537-13.21,22.561-19.916,42.073-19.916,33.536,0,50.2,18.7,50.2,55.688V239.9H257.217c-.2-19.717-3.658-28.252-14.838-28.252-14.834,0-15.039,14.635-15.039,48.374v2.844c0,35.77,0,51.419,15.039,51.419,11.791,0,14.431-8.331,14.431-27.436v-6.708Z" transform="translate(236.28 -182.788)" fill="#000002"/>
      <path id="Path_54" data-name="Path 54" d="M239.431,184.423h83.126V214.1H275v28.046h43.9v30.689H275v33.334h47.56v31.1H239.431Z" transform="translate(295.94 -180.767)" fill="#000002"/>
    </g>
    <g id="Group_107" data-name="Group 107" transform="translate(0 417.583)">
      <path id="Path_55" data-name="Path 55" d="M100.808,348.142c.2,2.641.2,5.08.2,7.723,0,36.99-15.853,55.08-49.8,55.08-19.916,0-33.94-6.5-42.681-19.918C1.015,379.441,0,359.727,0,330.866S1.015,282.291,8.535,270.7c8.537-13.21,22.561-19.916,42.073-19.916,33.536,0,50.2,18.7,50.2,55.688V307.9H66.054c-.2-19.717-3.658-28.252-14.838-28.252-14.834,0-15.037,14.635-15.037,48.374v2.844c0,35.769,0,51.419,15.037,51.419,11.79,0,14.431-8.331,14.431-27.436v-6.708Z" transform="translate(0 -250.788)" fill="#000002"/>
      <path id="Path_56" data-name="Path 56" d="M48.268,252.423H88.51c20.323,0,33.94.816,43.088,8.13,8.942,7.318,13.009,17.682,13.009,31.912,0,17.477-5.894,29.064-18.9,36.787,16.667,7.316,16.868,17.477,17.479,35.363.608,19.717-.812,32.928,8.741,40.651H110.053a77.21,77.21,0,0,1-2.641-21.137c0-6.708.4-11.791.4-15.65,0-17.682-3.457-24.39-16.871-24.39H83.631v61.177H48.268ZM88.1,316.243c14.635,0,20.325-5.284,20.325-19.511,0-13.21-5.691-18.089-20.325-18.089-1.422,0-2.844.2-4.472.2v37.2C85.258,316.042,86.68,316.243,88.1,316.243Z" transform="translate(59.66 -248.767)" fill="#000002"/>
      <path id="Path_57" data-name="Path 57" d="M94.264,252.423H177.39V282.1H129.83v28.046h43.9v30.689h-43.9v33.334h47.56v31.1H94.264Z" transform="translate(116.512 -248.767)" fill="#000002"/>
      <path id="Path_58" data-name="Path 58" d="M164.319,252.423H206.8l32.923,152.843h-35.77L199.481,376H171.432l-4.472,29.267H130.987Zm31.3,95.934-10.163-66.664L175.09,348.357Z" transform="translate(161.902 -248.767)" fill="#000002"/>
      <path id="Path_59" data-name="Path 59" d="M199.448,282.1H170.791V252.423H265.3V282.1H235.219V405.266H199.448Z" transform="translate(211.1 -248.767)" fill="#000002"/>
      <path id="Path_60" data-name="Path 60" d="M215.968,252.423H251.74V405.266H215.968Z" transform="translate(266.939 -248.767)" fill="#000002"/>
      <path id="Path_61" data-name="Path 61" d="M232.784,252.423h37.8L283.8,332.707c.4,2.641,2.033,13.617,4.269,33.129,1.623-14.431,2.844-25.406,4.063-32.925l13.416-80.488h37.8L308.594,405.266H266.93Z" transform="translate(287.724 -248.767)" fill="#000002"/>
      <path id="Path_62" data-name="Path 62" d="M283.052,252.423H366.18V282.1H318.618v28.046h43.9v30.689h-43.9v33.334H366.18v31.1H283.052Z" transform="translate(349.856 -248.767)" fill="#000002"/>
    </g>
  </g>
</svg>
