<svg xmlns="http://www.w3.org/2000/svg" width="170" height="35" viewBox="0 0 333 60">
  <g id="Group_1218" data-name="Group 1218" transform="translate(1626 -3039)">
    <g id="Group_1214" data-name="Group 1214">
      <g id="behance-network" transform="translate(-1521 3058.368)">
        <g id="Group_1211" data-name="Group 1211" transform="translate(0 0)">
          <g id="Group_1210" data-name="Group 1210">
            <path id="Path_1100" data-name="Path 1100" d="M12.948,104.87a4.721,4.721,0,0,0,1.485-1.09,4.234,4.234,0,0,0,.9-2.827,4.837,4.837,0,0,0-.891-2.929Q12.954,96.03,9.4,95.979H0v19.185H8.764a13.7,13.7,0,0,0,2.748-.258,5.4,5.4,0,0,0,2.2-.964,5.32,5.32,0,0,0,1.377-1.509,5.543,5.543,0,0,0,.868-3.059,5.033,5.033,0,0,0-.757-2.811A4.372,4.372,0,0,0,12.948,104.87Zm-9.07-5.559H8.11a7.463,7.463,0,0,1,2.3.3,1.721,1.721,0,0,1,1.045,1.774,1.806,1.806,0,0,1-.791,1.684,3.967,3.967,0,0,1-2.058.476H3.877ZM10.571,111.5a4.636,4.636,0,0,1-1.971.338H3.877V106.72H8.665a5,5,0,0,1,1.947.323,2.057,2.057,0,0,1,1.237,2.06A2.412,2.412,0,0,1,10.571,111.5Z" transform="translate(0 -95.979)"/>
            <rect id="Rectangle_761" data-name="Rectangle 761" width="8.335" height="2.388" transform="translate(20.112 0.895)"/>
            <path id="Path_1101" data-name="Path 1101" d="M294.01,176.876a6.844,6.844,0,0,0-1.149-2.933,5.791,5.791,0,0,0-2.483-2.1,8.218,8.218,0,0,0-3.383-.665,7,7,0,0,0-5.142,1.967,7.632,7.632,0,0,0-1.981,5.657q0,3.933,2.2,5.679a7.894,7.894,0,0,0,5.065,1.745,7.05,7.05,0,0,0,5.412-2.067,4.654,4.654,0,0,0,1.393-2.565H290.1a3.1,3.1,0,0,1-.775.976,3.214,3.214,0,0,1-2.085.649,3.855,3.855,0,0,1-2.075-.535,3.389,3.389,0,0,1-1.507-2.992h10.479A18.052,18.052,0,0,0,294.01,176.876Zm-10.259.368a3.845,3.845,0,0,1,1-2.2,3.024,3.024,0,0,1,2.245-.812,3.339,3.339,0,0,1,2.233.763,3.1,3.1,0,0,1,1,2.245Z" transform="translate(-262.668 -166.556)"/>
          </g>
        </g>
      </g>
      <g id="Ellipse_39" data-name="Ellipse 39" transform="translate(-1535 3039)" fill="none" stroke="#707070" stroke-width="0.6">
        <circle cx="30" cy="30" r="30" stroke="none"/>
        <circle cx="30" cy="30" r="29.7" fill="none"/>
      </g>
    </g>
    <g id="Group_1215" data-name="Group 1215">
      <path id="network" d="M19.6,1.5c-3.182-.116-5.331,1.709-6.465,5.444a4.123,4.123,0,0,1,1.7-.378c1.166,0,1.681.666,1.543,1.991a9.1,9.1,0,0,1-1.541,3.5q-1.447,2.3-2.166,2.3c-1.455,0-2.33-6.964-2.626-8.866Q9.423,1.537,6.745,1.8C5.107,1.951,2.247,4.9,0,6.9L1.079,8.309a7.071,7.071,0,0,1,1.8-1.094c1.789,0,2.655,6.088,4.044,10.615.932,2.5,2.05,3.748,3.4,3.748q3.247,0,7.926-6.152,4.525-5.89,4.679-9.279l.012-.01c.128-3.026-.976-4.575-3.34-4.633Z" transform="translate(-1427 3056.856)"/>
      <g id="Ellipse_40" data-name="Ellipse 40" transform="translate(-1444 3039)" fill="none" stroke="#707070" stroke-width="0.6">
        <circle cx="30" cy="30" r="30" stroke="none"/>
        <circle cx="30" cy="30" r="29.7" fill="none"/>
      </g>
    </g>
    <g id="Group_1216" data-name="Group 1216">
      <g id="Group_1213" data-name="Group 1213" transform="translate(-1335.921 3051.876)">
        <path id="Path_88" data-name="Path 88" d="M1181.368,446.664h6.02V428.6h-6.02Z" transform="translate(-1180.959 -420.107)"/>
        <path id="Path_89" data-name="Path 89" d="M1186.164,427.331a3.876,3.876,0,0,0-2.832-.112,2.835,2.835,0,0,0-1.711,1.44,3.075,3.075,0,0,0-.277,1.973,2.854,2.854,0,0,0,1.216,1.9,3.683,3.683,0,0,0,2.015.608,3.3,3.3,0,0,0,.981-.15,2.893,2.893,0,0,0,2.075-1.669,3.033,3.033,0,0,0,.064-2.346A2.763,2.763,0,0,0,1186.164,427.331Z" transform="translate(-1181.291 -427.005)"/>
        <path id="Path_90" data-name="Path 90" d="M1201.065,435.209a9.341,9.341,0,0,0-.491-2.394,6.425,6.425,0,0,0-1.856-2.816,6.241,6.241,0,0,0-3.6-1.44,7.68,7.68,0,0,0-1.979.069,5.338,5.338,0,0,0-2.283.933,6.407,6.407,0,0,0-1.573,1.712l-.1.133-.042-.011v-2.49h-6.111v18.062h6.133V446.8q0-5.127.005-10.255a5.757,5.757,0,0,1,.037-.6,3.119,3.119,0,0,1,.511-1.338,2.987,2.987,0,0,1,1.462-1.248,3.177,3.177,0,0,1,1.728-.139,2.163,2.163,0,0,1,1.382.805,3.093,3.093,0,0,1,.549,1.195,7.445,7.445,0,0,1,.2,1.845v9.913h6.084v-.181q0-5.072,0-10.153C1201.129,436.164,1201.1,435.684,1201.065,435.209Z" transform="translate(-1173.736 -420.415)"/>
      </g>
      <g id="Ellipse_41" data-name="Ellipse 41" transform="translate(-1353 3039)" fill="none" stroke="#707070" stroke-width="0.6">
        <circle cx="30" cy="30" r="30" stroke="none"/>
        <circle cx="30" cy="30" r="29.7" fill="none"/>
      </g>
    </g>
    <g id="Group_1217" data-name="Group 1217" transform="translate(15)">
      <g id="Ellipse_42" data-name="Ellipse 42" transform="translate(-1641 3039)" fill="none" stroke="#707070" stroke-width="0.6">
        <circle cx="30" cy="30" r="30" stroke="none"/>
        <circle cx="30" cy="30" r="29.7" fill="none"/>
      </g>
      <g id="Group_179" data-name="Group 179" transform="translate(-1626.425 3053.291)">
        <path id="Path_84" data-name="Path 84" d="M1168.047,458.25h-12.926a9.015,9.015,0,0,1-8.991-8.986V435.5a9.014,9.014,0,0,1,8.991-8.98h12.926a9.014,9.014,0,0,1,8.991,8.98v13.764a9.015,9.015,0,0,1-8.991,8.986m0-2.373a6.637,6.637,0,0,0,6.613-6.612V435.5a6.628,6.628,0,0,0-6.613-6.607h-12.926a6.628,6.628,0,0,0-6.613,6.607v13.764a6.637,6.637,0,0,0,6.613,6.612Z" transform="translate(-1146.13 -426.52)"/>
        <path id="Path_85" data-name="Path 85" d="M1164.463,436.382a8.511,8.511,0,1,1-8.511-8.505,8.513,8.513,0,0,1,8.511,8.505m-8.553-5.562a5.567,5.567,0,1,0,5.573,5.567,5.57,5.57,0,0,0-5.573-5.567" transform="translate(-1140.45 -420.641)"/>
        <path id="Path_86" data-name="Path 86" d="M1154.307,429.49a2.013,2.013,0,1,1-2.016-2.016,2.015,2.015,0,0,1,2.016,2.016" transform="translate(-1128.145 -422.387)"/>
      </g>
    </g>
  </g>
</svg>
