<svg xmlns="http://www.w3.org/2000/svg" width="158.278" height="28.391" viewBox="0 0 158.278 28.391">
  <g id="Group_24" data-name="Group 24" transform="translate(0.139 0.138)" opacity="0.43">
    <g id="Group_14" data-name="Group 14">
      <g id="Group_13" data-name="Group 13" transform="translate(8.84 6.377)">
        <path id="Path_9" data-name="Path 9" d="M428.257,446.814l.37-2.889h-2.859v-1.845c0-.835.234-1.4,1.432-1.4l1.529,0v-2.583a20.742,20.742,0,0,0-2.23-.112,3.479,3.479,0,0,0-3.714,3.819v2.128h-2.493v2.889h2.493v7.411h2.983v-7.411Z" transform="translate(-420.292 -437.979)" fill="#fff"/>
      </g>
      <circle id="Ellipse_1" data-name="Ellipse 1" cx="14.057" cy="14.057" r="14.057" fill="none" stroke="#fff" stroke-miterlimit="10" stroke-width="0.276"/>
    </g>
    <g id="Group_17" data-name="Group 17" transform="translate(43.296)">
      <g id="Group_16" data-name="Group 16" transform="translate(6.853 6.661)">
        <g id="Group_15" data-name="Group 15">
          <path id="Path_10" data-name="Path 10" d="M447.126,452.887H441.1a4.2,4.2,0,0,1-4.191-4.189v-6.416a4.2,4.2,0,0,1,4.191-4.189h6.026a4.2,4.2,0,0,1,4.191,4.189V448.7a4.2,4.2,0,0,1-4.191,4.189m0-1.109a3.094,3.094,0,0,0,3.085-3.08v-6.416a3.1,3.1,0,0,0-3.085-3.083H441.1a3.094,3.094,0,0,0-3.083,3.083V448.7a3.089,3.089,0,0,0,3.083,3.08Z" transform="translate(-436.909 -438.093)" fill="#fff"/>
          <path id="Path_11" data-name="Path 11" d="M446.155,443.414a3.968,3.968,0,1,1-3.968-3.963,3.967,3.967,0,0,1,3.968,3.963m-3.987-2.593a2.6,2.6,0,1,0,2.6,2.6,2.6,2.6,0,0,0-2.6-2.6" transform="translate(-434.961 -436.075)" fill="#fff"/>
          <path id="Path_12" data-name="Path 12" d="M442.939,439.988a.94.94,0,1,1-.942-.94.941.941,0,0,1,.942.94" transform="translate(-430.741 -436.674)" fill="#fff"/>
        </g>
      </g>
      <circle id="Ellipse_2" data-name="Ellipse 2" cx="14.057" cy="14.057" r="14.057" fill="none" stroke="#fff" stroke-miterlimit="10" stroke-width="0.276"/>
    </g>
    <g id="Group_18" data-name="Group 18" transform="translate(86.591)">
      <path id="Path_13" data-name="Path 13" d="M469.673,440.565a2,2,0,0,0-1.415-1.414,58.391,58.391,0,0,0-12.5,0,2,2,0,0,0-1.414,1.414,22.266,22.266,0,0,0,0,7.7,2,2,0,0,0,1.414,1.414,58.838,58.838,0,0,0,12.5,0,2,2,0,0,0,1.415-1.414,22.441,22.441,0,0,0,0-7.7Zm-9.268,6.252v-4.8l4.156,2.4Z" transform="translate(-447.949 -430.359)" fill="#fff"/>
      <circle id="Ellipse_3" data-name="Ellipse 3" cx="14.057" cy="14.057" r="14.057" fill="none" stroke="#fff" stroke-miterlimit="10" stroke-width="0.276"/>
    </g>
    <g id="Group_20" data-name="Group 20" transform="translate(129.887)">
      <g id="Group_19" data-name="Group 19" transform="translate(7.672 7.868)">
        <path id="Path_14" data-name="Path 14" d="M472.147,448.592h2.807V440.17h-2.807Z" transform="translate(-471.956 -436.213)" fill="#fff"/>
        <path id="Path_15" data-name="Path 15" d="M474.344,438.731a1.8,1.8,0,0,0-1.322-.052,1.32,1.32,0,0,0-.8.671,1.428,1.428,0,0,0-.129.917,1.336,1.336,0,0,0,.567.89,1.7,1.7,0,0,0,.94.281,1.632,1.632,0,0,0,.457-.067,1.353,1.353,0,0,0,.967-.781,1.415,1.415,0,0,0,.03-1.094A1.287,1.287,0,0,0,474.344,438.731Z" transform="translate(-472.07 -438.578)" fill="#fff"/>
        <path id="Path_16" data-name="Path 16" d="M482.221,443.216a4.525,4.525,0,0,0-.231-1.119,2.973,2.973,0,0,0-.865-1.31,2.91,2.91,0,0,0-1.678-.671,3.582,3.582,0,0,0-.922.03,2.519,2.519,0,0,0-1.064.435,3,3,0,0,0-.733.8l-.045.062-.02-.005v-1.161h-2.849v8.42h2.859v-.08q0-2.39,0-4.781a2.662,2.662,0,0,1,.017-.281,1.451,1.451,0,0,1,.239-.624,1.366,1.366,0,0,1,.681-.582,1.458,1.458,0,0,1,.805-.065,1,1,0,0,1,.644.373,1.471,1.471,0,0,1,.256.559,3.432,3.432,0,0,1,.094.858V448.7h2.837v-.082q0-2.368,0-4.733C482.249,443.659,482.236,443.437,482.221,443.216Z" transform="translate(-469.479 -436.319)" fill="#fff"/>
      </g>
      <circle id="Ellipse_4" data-name="Ellipse 4" cx="14.057" cy="14.057" r="14.057" fill="none" stroke="#fff" stroke-miterlimit="10" stroke-width="0.276"/>
    </g>
  </g>
</svg>
