<svg id="Group_201" data-name="Group 201" xmlns="http://www.w3.org/2000/svg" width="99.297" height="39.113" viewBox="0 0 99.297 39.113">
  <path id="Path_219" data-name="Path 219" d="M466.714,39.61a7.67,7.67,0,0,0-1.754.841c-3.056,1.9-4.425,5.39-4.564,8.77-.009.192-.011.383-.011.574h0c0,.018,0,.116,0,.147v12h3.975v-12a2.446,2.446,0,0,1,.883-1.883l1.569,1.883,1.566-1.883a2.446,2.446,0,0,1,.883,1.883v12h3.974v-12a6.426,6.426,0,0,0-8.8-5.971h0a4.47,4.47,0,0,1,3.388-1.458h0a6.4,6.4,0,0,1,1.284.1,7.292,7.292,0,0,1,6.211,7.08c.006.135.009.273.009.412V61.944H479.3V50.006a10.431,10.431,0,0,0-8.4-10.551c-.193-.044-.5-.106-.774-.142a9.015,9.015,0,0,0-1.208-.1,6.445,6.445,0,0,0-2.206.393" transform="translate(-454.308 -37.719)" fill="#000"/>
  <path id="Path_220" data-name="Path 220" d="M466.269,39.061c.206,0,0,.055-.177.093A10.978,10.978,0,0,0,457.433,49.8c0,5.459,0,12.125,0,12.125h-3.978V49.808c0-6.126,4.788-10.747,11.644-10.747Z" transform="translate(-453.458 -37.699)" fill="#000"/>
  <path id="Path_221" data-name="Path 221" d="M563.219,41.926v4.611H539.891V40.589c0-.468-.244-.7-.732-.769v-.2a3.28,3.28,0,0,0,2.3-.97h.206l-.137,1.6v4.679h20.018V43.564H555.1v-2.74l5.052-2.173.246.5-3.729,2.508v.267Z" transform="translate(-463.973 -37.649)" fill="#000"/>
  <path id="Path_222" data-name="Path 222" d="M500.632,45.06c.175-.9.592-1.338,1.219-1.438a3.445,3.445,0,0,1,.318,1.067l.032.371Zm22.538-2.172c-.418,0-.628-.168-.628-.535,0-.5.521-.87,1.534-1.069l.036,1.6Zm-.7-2.307a2.673,2.673,0,0,0-1.572,2.14,1.692,1.692,0,0,0,.627,1.3,2.1,2.1,0,0,0,1.359.47h1.327v.568H503.842v-.1a5.315,5.315,0,0,0-1.255-3.11,6.7,6.7,0,0,0-1.708.535,3.224,3.224,0,0,0-1.113.77,3.908,3.908,0,0,0-.667,1.469l-.139,1,.035,1.038h3.067a1.682,1.682,0,0,1-.66,1.1,1.99,1.99,0,0,1-2.442-.032,2.222,2.222,0,0,1-.767-1.066h-.278a2.826,2.826,0,0,0,1.116,1.9,2.926,2.926,0,0,0,1.915.635,3.2,3.2,0,0,0,1.779-.567A2.813,2.813,0,0,0,503.77,47.1l.072-.432h22.081l.035-6.986a6.661,6.661,0,0,0-3.484.9" transform="translate(-458.912 -37.775)" fill="#000"/>
  <path id="Path_223" data-name="Path 223" d="M535.717,43.414l-.1-.535a3.288,3.288,0,0,1-2.162,1.7v.168a1.579,1.579,0,0,1,1.08.536,1.91,1.91,0,0,1,.417,1.169,2.213,2.213,0,0,1-.627,1.537,2.149,2.149,0,0,1-1.532.6,2.781,2.781,0,0,1-1.742-.568,2.781,2.781,0,0,0,1.01,1.134,3.125,3.125,0,0,0,1.672.5,2.766,2.766,0,0,0,2.056-.9,3.328,3.328,0,0,0,.977-2.471,4.147,4.147,0,0,0-.488-1.806Z" transform="translate(-462.977 -38.168)" fill="#000"/>
  <path id="Path_224" data-name="Path 224" d="M495.281,43.414l-.105-.535a3.36,3.36,0,0,1-2.161,1.7v.168a1.573,1.573,0,0,1,1.079.536,1.715,1.715,0,0,1,.419,1.169,2.071,2.071,0,0,1-.628,1.537,2.15,2.15,0,0,1-1.533.6,2.687,2.687,0,0,1-1.709-.568,2.287,2.287,0,0,0,.976,1.134,3.044,3.044,0,0,0,1.675.5,2.959,2.959,0,0,0,2.09-.9,3.6,3.6,0,0,0,.94-2.471,3.974,3.974,0,0,0-.523-1.806Z" transform="translate(-458.02 -38.168)" fill="#000"/>
  <path id="Path_225" data-name="Path 225" d="M524.989,39.212h.034a1.147,1.147,0,0,0,.665-.267.94.94,0,0,0,.242-.6.809.809,0,0,0-.279-.568,1.031,1.031,0,0,0-.662-.268.863.863,0,0,0-.59.268.812.812,0,0,0-.281.568.839.839,0,0,0,.281.635.826.826,0,0,0,.59.232" transform="translate(-462.127 -37.509)" fill="#000"/>
  <path id="Path_226" data-name="Path 226" d="M543.88,62.886c-.891,0-1.8-.861-1.8-2.855.008-1.553.663-2.464,1.722-2.466a1.558,1.558,0,0,1,1.306.729,3.584,3.584,0,0,1,.534,2.054c-.005,1.679-.742,2.538-1.761,2.538m2.784-5.385a3.961,3.961,0,0,0-2.8-1.049,3.827,3.827,0,0,0-3.952,3.787A3.73,3.73,0,0,0,541.057,63a3.941,3.941,0,0,0,2.743,1.054h0a4.058,4.058,0,0,0,2.826-1.062,3.935,3.935,0,0,0,.036-5.493" transform="translate(-464.066 -39.833)" fill="#000"/>
  <path id="Path_227" data-name="Path 227" d="M564.6,56.469a2.18,2.18,0,0,0-1.733,1.086,1.148,1.148,0,0,0-1.127-.994,1.949,1.949,0,0,0-.526.08c-.465.139-1.16.454-1.171,1.06a.848.848,0,0,0,.068.325l.027.061.067-.01a1.94,1.94,0,0,1,.355-.038c.443.012.567.19.58.7v3.037c0,.6-.076.817-.272.969a1.249,1.249,0,0,1-.516.224l-.042.006-.017.038a.788.788,0,0,0-.089.328c0,.261.211.431.54.517a5.816,5.816,0,0,0,1.444.127,5.42,5.42,0,0,0,1.385-.122c.31-.081.5-.25.5-.495a.848.848,0,0,0-.1-.355l-.018-.038-.04-.006a2.022,2.022,0,0,1-.692-.224c-.176-.153-.265-.369-.267-.969V59.947c.005-1.5.512-1.929.873-2.041a.971.971,0,0,0,.981.734,1.036,1.036,0,0,0,1.019-1.06,1.143,1.143,0,0,0-1.232-1.112" transform="translate(-466.535 -39.835)" fill="#000"/>
  <path id="Path_228" data-name="Path 228" d="M515.952,56.484a2.19,2.19,0,0,0-1.735,1.073,1.155,1.155,0,0,0-1.135-.981,1.892,1.892,0,0,0-.516.08c-.471.139-1.166.451-1.176,1.056a.848.848,0,0,0,.07.329l.025.061.07-.01a1.9,1.9,0,0,1,.352-.037c.446.011.569.19.586.7v3.037c0,.6-.079.817-.269.971a1.333,1.333,0,0,1-.523.222l-.043.007-.018.038a.755.755,0,0,0-.089.327c0,.258.21.431.538.517a5.816,5.816,0,0,0,1.444.127,5.516,5.516,0,0,0,1.391-.121c.311-.083.505-.251.5-.5a.807.807,0,0,0-.1-.352l-.017-.038-.04-.007a1.912,1.912,0,0,1-.69-.224c-.19-.154-.281-.369-.283-.969V59.963c.006-1.5.521-1.93.884-2.042a.963.963,0,0,0,.974.735,1.039,1.039,0,0,0,1.026-1.06,1.147,1.147,0,0,0-1.232-1.112" transform="translate(-460.566 -39.837)" fill="#000"/>
  <path id="Path_229" data-name="Path 229" d="M558.061,62.647l-.062.008c-.067.006-.128.009-.186.009-.545-.009-.742-.262-.758-.826,0-.133.016-.571.016-1.4,0-1.956.026-2.423.026-2.686a1.359,1.359,0,0,0-.268-.9,1.136,1.136,0,0,0-.911-.354,3.528,3.528,0,0,0-.505.054c-.508.1-1.368.449-1.385,1.1a.743.743,0,0,0,.062.29l.024.055.064-.005c.077-.008.154-.014.224-.014.527.014.707.2.722.746v1.856a2.59,2.59,0,0,1-.317,1.346,1.307,1.307,0,0,1-1.2.618,1.032,1.032,0,0,1-1.054-.6,4.7,4.7,0,0,1-.259-1.888l.014-2.3a1.375,1.375,0,0,0-.268-.9,1.128,1.128,0,0,0-.908-.354,3.539,3.539,0,0,0-.506.054c-.5.1-1.366.449-1.383,1.1a.772.772,0,0,0,.061.29l.025.055.063-.005c.079-.008.154-.014.224-.014.527.015.706.2.723.746V60.06c0,1.4-.006,2.378.674,3.152a2.565,2.565,0,0,0,1.95.8,2.847,2.847,0,0,0,1.919-.731c.136-.124.227-.214.3-.3a1.855,1.855,0,0,0,.28.688.942.942,0,0,0,.81.349h.013a3.466,3.466,0,0,0,.472-.051c.5-.1,1.363-.349,1.386-.983a.761.761,0,0,0-.062-.283Z" transform="translate(-465.21 -39.838)" fill="#000"/>
  <path id="Path_230" data-name="Path 230" d="M528.867,57.487a1.387,1.387,0,0,1,1.446,1.334.59.59,0,0,1-.036.265c-.031.045-.07.078-.221.082h-2.793a1.607,1.607,0,0,1,1.6-1.681m2.878,4.18-.065-.047-.051.061a2.618,2.618,0,0,1-1.9.788,2.281,2.281,0,0,1-2.482-2.242h4.731l.025-.039a2.035,2.035,0,0,0,.256-1.032,2.732,2.732,0,0,0-.759-1.872,3.152,3.152,0,0,0-2.358-.911,3.877,3.877,0,0,0-2.832,1.108,3.956,3.956,0,0,0-1.079,2.825,3.718,3.718,0,0,0,3.8,3.682c2.062,0,2.992-.972,3-1.731a.652.652,0,0,0-.28-.591" transform="translate(-462.264 -39.824)" fill="#000"/>
  <path id="Path_231" data-name="Path 231" d="M538.833,56.2h-1.927V55.055a1.971,1.971,0,0,1,.208-1.022.914.914,0,0,1,.857-.4,1.208,1.208,0,0,1,.723.2.93.93,0,0,0,.819,1.457.994.994,0,0,0,1.012-1.009c-.006-1.039-1.227-1.684-2.679-1.685a2.646,2.646,0,0,0-2.351,1.095A3.5,3.5,0,0,0,535,55.776v.442h-.491a.661.661,0,0,0-.708.647.952.952,0,0,0,.086.377l.019.047,1.122.036v3.992c0,.6-.079.816-.272.971a1.315,1.315,0,0,1-.52.222l-.044.007-.019.037a.77.77,0,0,0-.084.327c0,.26.211.431.542.518a5.818,5.818,0,0,0,1.449.128,6.174,6.174,0,0,0,1.512-.132c.351-.091.586-.265.586-.538a.688.688,0,0,0-.081-.3l-.017-.039-.041-.006a2.384,2.384,0,0,1-.785-.223c-.192-.156-.3-.372-.3-.97V57.356c.235.005.553.028.873.028a4.023,4.023,0,0,0,.432-.016.725.725,0,0,0,.672-.731.962.962,0,0,0-.086-.384Z" transform="translate(-463.315 -39.36)" fill="#000"/>
  <path id="Path_232" data-name="Path 232" d="M523.191,56.484a2.189,2.189,0,0,0-1.734,1.074,1.154,1.154,0,0,0-1.134-.982,1.889,1.889,0,0,0-.518.08c-.469.139-1.164.451-1.176,1.056a.822.822,0,0,0,.072.329l.025.061.068-.01a1.906,1.906,0,0,1,.354-.037c.443.011.568.19.586.7v3.037c0,.6-.082.817-.274.971a1.3,1.3,0,0,1-.52.222l-.042.007-.018.038a.813.813,0,0,0-.09.327c0,.258.211.431.54.517a5.811,5.811,0,0,0,1.444.127,5.512,5.512,0,0,0,1.39-.121c.311-.083.5-.251.5-.5a.838.838,0,0,0-.094-.352l-.019-.038-.04-.007a1.909,1.909,0,0,1-.69-.224c-.189-.154-.28-.369-.283-.969V59.963c.005-1.5.522-1.93.886-2.042a.958.958,0,0,0,.97.735,1.038,1.038,0,0,0,1.028-1.06,1.148,1.148,0,0,0-1.233-1.112" transform="translate(-461.454 -39.837)" fill="#000"/>
  <path id="Path_233" data-name="Path 233" d="M498.483,59.369a1.254,1.254,0,0,0-.838.3,1.108,1.108,0,0,0-.355.842,1.2,1.2,0,0,0,.393.856,2.054,2.054,0,0,1-1.864.928,2.44,2.44,0,0,1-2.011-1.1A5.006,5.006,0,0,1,493,58.281a5.139,5.139,0,0,1,.781-2.921,2.371,2.371,0,0,1,1.981-1.11,2.064,2.064,0,0,1,1.867.933,1.206,1.206,0,0,0-.395.861,1.1,1.1,0,0,0,.355.838,1.238,1.238,0,0,0,.839.3,1.188,1.188,0,0,0,1.126-1.281c-.009-1.349-1.658-2.911-3.993-2.914a4.811,4.811,0,0,0-3.444,1.472,5.424,5.424,0,0,0-1.49,3.836,5.293,5.293,0,0,0,1.518,3.868,4.944,4.944,0,0,0,3.471,1.4c2.334,0,3.983-1.557,3.993-2.916a1.185,1.185,0,0,0-1.126-1.276" transform="translate(-458.018 -39.408)" fill="#000"/>
  <path id="Path_234" data-name="Path 234" d="M506.727,62.014a1.829,1.829,0,0,1-1.352.654,1.168,1.168,0,0,1-1.283-1.181c0-.746.569-1.12,1.406-1.129a1.842,1.842,0,0,1,.925.209.524.524,0,0,1,.3.417Zm2.855.831c-.668-.1-.971-.237-.981-.752V59.443a3.486,3.486,0,0,0-.426-2.235,3.222,3.222,0,0,0-2.621-.851c-1.684,0-2.943.667-2.956,1.659a.96.96,0,0,0,.974.968.981.981,0,0,0,.735-.3,1.034,1.034,0,0,0,.262-.71,1.409,1.409,0,0,0-.049-.354,3.424,3.424,0,0,1,.912-.153c.957.011,1.283.475,1.295,1.292v.812a4.334,4.334,0,0,0-1.558-.268,3.9,3.9,0,0,0-2.25.6,2.017,2.017,0,0,0-.894,1.7,2.514,2.514,0,0,0,2.734,2.374,3.623,3.623,0,0,0,2.21-.827,1.482,1.482,0,0,0,1.381.808c.049,0,.1,0,.149-.006a1.1,1.1,0,0,0,1.157-1.033l0-.074Z" transform="translate(-459.417 -39.822)" fill="#000"/>
  <path id="Path_235" data-name="Path 235" d="M557.093,76.834c-.746,0-1.94.082-1.94-.409,0-1.286,1.883-1.319,2.837-.931.348.14.632-.84.632-1.025,0-.2-.307-.333-1.194-.333l-.01.009a5,5,0,0,0-3,1.069,1.525,1.525,0,0,0-.633,1.157c0,.776.618,1.116,1.477,1.169.354.022,1.026.03,1.353.065,1.113.118.878,1.606-.108,2.057a4.468,4.468,0,0,1-2.864,0c-.378-.04-.653.89-.653,1.076s.295.324,1.127.332l.239.018a6.262,6.262,0,0,0,3.8-1.341,1.912,1.912,0,0,0,.794-1.449c0-.971-.773-1.463-1.85-1.463" transform="translate(-465.669 -42.003)" fill="#000"/>
  <path id="Path_236" data-name="Path 236" d="M563.9,76.834c-.746,0-1.94.082-1.94-.409,0-1.286,1.883-1.319,2.838-.931.347.14.631-.84.631-1.025,0-.2-.306-.333-1.194-.333l-.011.009a5,5,0,0,0-3,1.069,1.528,1.528,0,0,0-.633,1.157c0,.776.619,1.116,1.477,1.169.354.022,1.026.03,1.353.065,1.114.118.878,1.606-.107,2.057a4.471,4.471,0,0,1-2.864,0c-.378-.04-.653.89-.653,1.076s.295.324,1.127.332l.239.018a6.263,6.263,0,0,0,3.8-1.341,1.912,1.912,0,0,0,.794-1.449c0-.971-.772-1.463-1.85-1.463" transform="translate(-466.505 -42.003)" fill="#000"/>
  <path id="Path_237" data-name="Path 237" d="M527.747,76.867c-.746,0-1.94.082-1.94-.409,0-1.286,1.883-1.318,2.838-.93.347.14.632-.84.632-1.026s-.307-.333-1.195-.333l-.011.008a5,5,0,0,0-3,1.069,1.529,1.529,0,0,0-.633,1.157c0,.777.619,1.117,1.477,1.169.354.021,1.026.03,1.353.065,1.114.118.878,1.606-.107,2.056a4.467,4.467,0,0,1-2.863,0c-.379-.04-.654.89-.654,1.076s.295.325,1.127.332l.24.017A6.262,6.262,0,0,0,528.8,79.78a1.913,1.913,0,0,0,.794-1.449c0-.971-.772-1.463-1.85-1.463" transform="translate(-462.069 -42.007)" fill="#000"/>
  <path id="Path_238" data-name="Path 238" d="M512.77,74.451a2.984,2.984,0,0,0-2.346-.8,6.37,6.37,0,0,0-1.581.18c.239-.863.412-1.485.412-1.485.16-.559.294-1.037.319-1.183,0-.2-.093-.293-.265-.293a3.229,3.229,0,0,0-1.119.412c-.2.133-.291.267-.44.8-.173.611-.8,2.793-.8,2.793a33.438,33.438,0,0,0-1.2,4.617.9.9,0,0,0,.575.914,1.728,1.728,0,0,0,1,.185,6.371,6.371,0,0,0,4.314-1.613,4.71,4.71,0,0,0,1.608-2.913,2,2,0,0,0-.48-1.612m-1.152,2.062a3.165,3.165,0,0,1-3.231,2.955,5.464,5.464,0,0,1-.8-.042.317.317,0,0,1-.136-.282,2.132,2.132,0,0,1,.078-.493c.213-.817.665-2.465,1.055-3.872a5.027,5.027,0,0,1,1.112-.114,1.829,1.829,0,0,1,1.571.587,1.58,1.58,0,0,1,.354,1.261" transform="translate(-459.875 -41.602)" fill="#000"/>
  <path id="Path_239" data-name="Path 239" d="M551.424,78.708l-.053.013a4.856,4.856,0,0,1-2.832,1.212c-.972,0-1.557-.4-1.557-1.33a3.333,3.333,0,0,1,.039-.493,4.78,4.78,0,0,0,.613.026c2.835,0,4.229-1.25,4.229-2.5,0-.971-.7-1.462-1.689-1.462-2.234,0-4.7,2.472-4.7,4.934,0,1.091.6,1.984,2.2,1.984,2.035,0,3.951-1.425,3.938-2.1-.015-.106-.066-.28-.188-.28m-1.689-3.764c.493,0,.691.253.691.626,0,.825-.77,1.874-3.287,1.967.388-1.342,1.452-2.592,2.6-2.592" transform="translate(-464.748 -42.007)" fill="#000"/>
  <path id="Path_240" data-name="Path 240" d="M535.4,71.295a2.048,2.048,0,0,1-.556,1.081,3.9,3.9,0,0,1-1.132.461.847.847,0,0,1-.091.007h0a.293.293,0,0,1-.215-.081.267.267,0,0,1-.073-.2.891.891,0,0,1,.05-.253,3.268,3.268,0,0,1,.339-.922,3,3,0,0,1,1.386-.623.669.669,0,0,1,.1-.011.246.246,0,0,1,.173.06.25.25,0,0,1,.073.189,1.013,1.013,0,0,1-.056.289" transform="translate(-463.257 -41.588)" fill="#000"/>
  <path id="Path_241" data-name="Path 241" d="M532.419,74.944c.149-.534.24-.668.44-.8a3.964,3.964,0,0,1,1.246-.414c.175,0,.268.095.268.295-.027.147-1.57,5.628-1.586,5.817,0,.051-.01.133.019.164a.259.259,0,0,0,.168.041,3.79,3.79,0,0,0,.39-.031c.125-.011.243-.022.316-.022a.408.408,0,0,1,.309.11.286.286,0,0,1,.073.228c-.029.4-1.243.645-1.767.645a1.391,1.391,0,0,1-1.073-.34.807.807,0,0,1-.2-.646c.025-.332,1.219-4.43,1.393-5.045" transform="translate(-462.974 -41.953)" fill="#000"/>
  <path id="Path_242" data-name="Path 242" d="M516.387,73.714a1.4,1.4,0,0,1,1.075.339.811.811,0,0,1,.2.648,5.754,5.754,0,0,1-.288,1.191l-.1.347c-.234.743-.422,1.312-.569,1.761a8.3,8.3,0,0,0-.42,1.484.454.454,0,0,0,.073.342.422.422,0,0,0,.316.1c.728,0,2.754-1.441,4.13-4.77.4-.958.621-1.42,1.34-1.42a.532.532,0,0,1,.411.139.385.385,0,0,1,.094.307c-.032.387-1.138,4.641-1.584,6.156-.169.569-1.129.7-1.268.7a.35.35,0,0,1-.274-.107.388.388,0,0,1-.077-.324c.005-.054.038-.195.165-.729.1-.425.236-.984.337-1.448-1.133,1.363-2.468,2.608-3.99,2.608a1.373,1.373,0,0,1-1.062-.383,1.311,1.311,0,0,1-.287-1.02,17.591,17.591,0,0,1,.739-2.8,16.408,16.408,0,0,0,.555-1.982c0-.048.01-.132-.02-.162a.255.255,0,0,0-.168-.04c-.112,0-.26.015-.39.029s-.241.025-.316.025a.41.41,0,0,1-.31-.111.289.289,0,0,1-.071-.229c.03-.4,1.243-.645,1.768-.645" transform="translate(-460.959 -41.951)" fill="#000"/>
  <path id="Path_243" data-name="Path 243" d="M541.744,81.035a1.4,1.4,0,0,1-1.075-.34.811.811,0,0,1-.2-.647,5.876,5.876,0,0,1,.288-1.191l.105-.347c.233-.743.421-1.312.568-1.76a8.226,8.226,0,0,0,.42-1.484.457.457,0,0,0-.072-.342.424.424,0,0,0-.317-.1c-.728,0-2.753,1.44-4.13,4.77-.4.958-.621,1.42-1.341,1.42a.528.528,0,0,1-.411-.139.386.386,0,0,1-.094-.307c.031-.388,1.138-4.641,1.584-6.156.17-.569,1.129-.7,1.268-.7a.352.352,0,0,1,.275.106.393.393,0,0,1,.077.324c-.005.054-.039.2-.165.73-.1.425-.237.984-.338,1.448,1.134-1.363,2.469-2.608,3.991-2.608a1.373,1.373,0,0,1,1.062.383,1.307,1.307,0,0,1,.286,1.02,17.39,17.39,0,0,1-.739,2.8,16.37,16.37,0,0,0-.555,1.981c0,.049-.01.132.021.163a.255.255,0,0,0,.168.04c.112,0,.259-.015.39-.029s.24-.025.316-.025a.411.411,0,0,1,.31.111.287.287,0,0,1,.07.229c-.029.4-1.242.645-1.767.645" transform="translate(-463.522 -41.951)" fill="#000"/>
</svg>
