<svg id="Group_204" data-name="Group 204" xmlns="http://www.w3.org/2000/svg" width="76.79" height="20.882" viewBox="0 0 76.79 20.882">
  <path id="Path_248" data-name="Path 248" d="M540.094,374.616v2.893l3.266-2.893Z" transform="translate(-524.149 -369.614)" fill="#000"/>
  <g id="Group_203" data-name="Group 203" transform="translate(0 0)">
    <path id="Path_249" data-name="Path 249" d="M535.065,373.916h-5.589a7.533,7.533,0,0,0-7.557,7.824,7.974,7.974,0,1,0,15.945-.133v-4.6h-2.8v4.6c0,2.485-1.8,5.523-5.154,5.523a5.3,5.3,0,0,1-5.163-5.39,5.148,5.148,0,0,1,5.425-5.191h4.717l2.973-2.633v-5h-2.8Zm14.563-.549c-2.592,0-5.03,1.459-5.808,2.918v-2.368H541.13v15.5h2.982v-9.6c0-2.745,2.976-4.115,4.855-4.115,3.236,0,3.9,2.14,3.9,4.669v9.045h2.851v-9.371c0-5.382-3-6.678-6.087-6.678m30.122,13.818c-1.375,0-1.768-1.086-1.768-2.2v-8.532h4.731v-2.542h-4.731v-5H575.17v16.647a3.94,3.94,0,0,0,4.179,4.235,9.3,9.3,0,0,0,3.534-.654l-.794-2.508a6.49,6.49,0,0,1-2.337.552m18.957-8.57c0-2.266-1.9-5.016-7.229-5.016h-.01a14.005,14.005,0,0,0-6.186,1.73l1.2,2.056a9.765,9.765,0,0,1,4.969-1.328c4.141,0,4.5,1.894,4.512,2.782v.235s-3.148.273-5.009.446a8.705,8.705,0,0,0-5.422,2.069,4.492,4.492,0,0,0-1.42,3.254v.035c0,3.252,3.135,4.915,6.62,4.915a12.962,12.962,0,0,0,5.324-1.384v1.013h2.649Zm-8.127,8.83c-1.057,0-3.549-.421-3.549-2.922,0-1.866,2.249-2.624,4.11-2.788,1.309-.115,4.845-.412,4.845-.412V385.4c-.955,1.327-3.181,2.04-5.406,2.04m-18.158-8.83c0-2.656-2.333-5.016-7.239-5.016a14.56,14.56,0,0,0-6.187,1.73l1.2,2.056a9.76,9.76,0,0,1,4.968-1.328c4.141,0,4.5,1.894,4.512,2.782v.235s-3.147.278-5.009.446c-2.989.268-6.841,1.641-6.841,5.358,0,3.238,3.134,4.915,6.62,4.915a12.96,12.96,0,0,0,5.324-1.384v1.013h2.649Zm-8.127,8.83c-1.057,0-3.548-.421-3.548-2.922,0-1.866,2.248-2.624,4.109-2.788,1.308-.115,4.844-.412,4.844-.412s0,3.758,0,4.083c-.955,1.327-3.181,2.04-5.407,2.04" transform="translate(-521.919 -368.914)" fill="#000"/>
  </g>
</svg>
