<svg id="Group_183" data-name="Group 183" xmlns="http://www.w3.org/2000/svg" width="87.736" height="60.392" viewBox="0 0 87.736 60.392">
  <path id="Path_91" data-name="Path 91" d="M648.283,888.251c-.226.225-3.539,3.214-3.846,3.537a5.362,5.362,0,0,0-1.124,3.222c0,.391.008,9.788,0,10.122a3.809,3.809,0,0,1-.807,2.094c-.256.254-1.813,1.669-1.951,1.818l.883.015c.288-.276,3.289-2.934,3.6-3.294a5.186,5.186,0,0,0,1.383-3.488c0-.434,0-9.334,0-9.727a3.755,3.755,0,0,1,1.031-2.661c.359-.4,1.543-1.388,1.753-1.61Z" transform="translate(-595.194 -888.222)" fill="#000"/>
  <path id="Path_92" data-name="Path 92" d="M649.585,908.862V912.9s1.178,1.217,1.41,1.465c1.09,1.159,1.079,3.267-2.372,6.632a6.994,6.994,0,0,1-4.7,2.219h-6.177l3.675,3.209h2.46a9.034,9.034,0,0,0,6.3-2.58,7.558,7.558,0,0,0,2.065-5.434v-5.265a4.277,4.277,0,0,0-1.418-3.107c-.168-.165-1.239-1.176-1.239-1.176" transform="translate(-595.929 -882.833)" fill="#000"/>
  <path id="Path_93" data-name="Path 93" d="M628.332,898.31h-1.265a3.322,3.322,0,0,1,1.359,2.625c0,.616,0,4.594,0,4.984.028,1.335.989,6.311,5.475,6.311h12.9s.044,7.915.044,8.253a3.546,3.546,0,0,1-.82,2.517c-.333.348-1.993,1.854-1.993,1.854l.927-.021c.378-.28,3.214-2.865,3.483-3.16a5.1,5.1,0,0,0,1.514-4.121V912.3s1.152-1.219,1.49-1.5,2.566-2.4,2.566-2.4c0,2.041.97,2.947,1.971,2.947a1.933,1.933,0,0,0,1.325-.564c.471-.445,1.988-1.839,2.329-2.175,1.047-1.032,1.631-4.261-.915-4.261h-.024c-1.54.013-3.382,2.243-3.593,2.51a5.375,5.375,0,0,1-1.079-1.138V907.7a3.087,3.087,0,0,1-2.047,1.092h-2.022V906.8a4.056,4.056,0,0,1,.8-2.427c.341-.357,1.854-1.714,2-1.844l-.927.013c-.359.275-3.49,3.14-3.888,3.583a5.717,5.717,0,0,0-1.109,2.669l-14.6.014a3.284,3.284,0,0,1-3.011-3.323c0-.189.055-3.74.055-3.74,0-3.054-.8-3.376-.941-3.435m29.564,11a1.874,1.874,0,0,1-1.1-.5,12.126,12.126,0,0,1-1.25-1.444,2.223,2.223,0,0,1,1.463-.458,1.3,1.3,0,0,1,1.048.362c.762,1.045.585,2.041-.163,2.041" transform="translate(-598.72 -885.592)" fill="#000"/>
  <path id="Path_94" data-name="Path 94" d="M635.9,910.539,633.438,913c1.677,1.679,2.244,2.518,2.407,3.277.132-.132,2.385-2,2.385-2.707,0-1.031-.677-1.382-2.33-3.035" transform="translate(-597.054 -882.394)" fill="#000"/>
  <path id="Path_95" data-name="Path 95" d="M641.925,888.228s-.448.435-1.682,1.666c-.661.661-.472,2.084.906,3.464,0,0,.037,2.534.037,3.475a1.147,1.147,0,0,1-.3.632s-2-1.825-3.837-1.825h-2.732a5.024,5.024,0,0,0-3.28,1.705,2.63,2.63,0,0,0-.172,3.395c.363.363,1.887,1.882,1.887,1.882a17.423,17.423,0,0,1,0-5.176,1.4,1.4,0,0,1,1.3-.975,1.063,1.063,0,0,1,.6.182,41.818,41.818,0,0,1,3.868,3.189s-4.979,5.207-5.176,5.405a2.728,2.728,0,0,1-1.569.729h-.035a1.848,1.848,0,0,1-1.535-.87s-.015,2.329-.015,2.539c0,.84,1.109,1.682,2.187,1.682h6.844a2.17,2.17,0,0,0,1.516-.56c.28-.252,2.119-2.1,2.3-2.3a1.812,1.812,0,0,0,.492-1.318c0-.244-.005-1.372-.005-2.6a7.155,7.155,0,0,0-1.986-4.5s.4-.307.433-1.381c.005-.3,0-2.673,0-2.673s.82.776.86,1.1c0,0,.877-.9,1.439-1.458.64-.64-.424-1.981-.92-2.476a4.475,4.475,0,0,1-1.425-2.932m-8.582,17.944a5.618,5.618,0,0,0,1.423-1.26c.141-.15,4.39-4.521,4.39-4.521a29.292,29.292,0,0,1,3.193,3.832c.375.654.788,1.949-1.3,1.949h-7.708" transform="translate(-597.903 -888.228)" fill="#000"/>
  <path id="Path_96" data-name="Path 96" d="M627.113,907.014h-1.265a3.035,3.035,0,0,1,1.361,2.673v6.151c0,4,3.3,7.7,7.313,7.7h3.351a4.835,4.835,0,0,0,3.933-1.567c.445-.395,1.024-1.045,1.236-1.282a4.257,4.257,0,0,0,1.448-3.48V915.2A3.7,3.7,0,0,0,643,912.248c-.312-.314-1.169-1.13-1.169-1.13v4.122s.843.9,1.215,1.192a2.126,2.126,0,0,1-1.258,3.76c-.322,0-6.91,0-7.358.013-.037,0-.072,0-.111,0a6.523,6.523,0,0,1-6.261-6.415v-3.344c0-3.435-.941-3.435-.941-3.435" transform="translate(-599.039 -883.316)" fill="#000"/>
  <path id="Path_97" data-name="Path 97" d="M631.909,910.547l-2.462,2.465c1.677,1.679,2.247,2.518,2.407,3.276.131-.131,2.383-2,2.383-2.706,0-1.032-.675-1.383-2.327-3.035" transform="translate(-598.098 -882.392)" fill="#000"/>
  <path id="Path_98" data-name="Path 98" d="M613.1,922.784h-8.5a5.061,5.061,0,0,1,1.434,3.836l.042,10.305c0,2.587,1.034,2.659,1.034,2.659h8.381a2.315,2.315,0,0,0,2.561-2.1l.028-.986s-.6,1.24-3.1,1.24l-3.943,0c-1.242,0-1.147-1.033-1.258-1.914v-5.655s.863-.023,1.841-.023c.33,0,.682-.014,1.051-.014a5.3,5.3,0,0,1,2.724.6,4.072,4.072,0,0,0-3.782-2.3h-1.833v-1.813a4.824,4.824,0,0,0-.385-2.045l2.6.009c2.255,0,4-.033,5.808,1.175,0,0-.347-2.982-4.7-2.982" transform="translate(-604.596 -879.192)" fill="#000"/>
  <path id="Path_99" data-name="Path 99" d="M623.48,925.415a3.583,3.583,0,0,0-3.411,2.591s-.064-2.5-2.251-2.5l-2.142.008s1.241.507,1.241,2.671l0,8.005c0,2.642,1.063,2.687,1.063,2.687h3.53a3.428,3.428,0,0,1-1.352-2.711v-7.1a2,2,0,0,1,2.1-1.388,1.955,1.955,0,0,1,1.789,1.91l0,6.6c0,2.683,1.053,2.687,1.053,2.687h3.542a3.494,3.494,0,0,1-1.355-2.708l-.01-7.1a1.988,1.988,0,0,1,3.873.551s-.006,6.021,0,6.58c.014,2.652,1.013,2.676,1.048,2.676h0c1.844,0,3.542,0,3.542,0a3.434,3.434,0,0,1-1.351-2.684v-7.208c0-2.8-2.285-3.54-3.988-3.54a3.441,3.441,0,0,0-3.214,2.529,3.771,3.771,0,0,0-3.7-2.551" transform="translate(-601.699 -878.504)" fill="#000"/>
  <path id="Path_100" data-name="Path 100" d="M634.007,925.484h-2.141s1.226.544,1.226,2.662l-.005,8.027v.009c0,2.649,1.06,2.664,1.084,2.664,1.847,0,3.53.006,3.53.006a3.391,3.391,0,0,1-1.357-2.69l-.015-.011.007-7.672c0-2.995-1.574-2.995-2.329-2.995" transform="translate(-597.465 -878.486)" fill="#000"/>
  <path id="Path_101" data-name="Path 101" d="M639.035,925.472l-2.142,0s1.241.511,1.241,2.672l-.005,8.014c0,2.644,1.068,2.69,1.068,2.69h3.528a3.427,3.427,0,0,1-1.356-2.711l0-6.561a1.919,1.919,0,0,1,.864-1.356,2.876,2.876,0,0,1,1.548-.454,2.714,2.714,0,0,1,2.115.991V926.5a1.772,1.772,0,0,0-1.806-.963c-2.218,0-2.759,2.635-2.759,2.635-.18-2.081-.738-2.7-2.3-2.7" transform="translate(-596.151 -878.489)" fill="#000"/>
  <path id="Path_102" data-name="Path 102" d="M657.538,923.059a11.028,11.028,0,0,1-2.375,2.659,20.587,20.587,0,0,1-3.107,1.842l2.242.038-.005,9.3c0,2.58,1.079,2.58,1.079,2.58,1.938,0,3.526.008,3.526.008a3.334,3.334,0,0,1-1.364-2.609l0-9.272c.932.005.29.008.873.008a4.532,4.532,0,0,1,2.088.522l.01-2.017h-2.971Z" transform="translate(-592.186 -879.12)" fill="#000"/>
  <path id="Path_103" data-name="Path 103" d="M664.481,925.43h-.039c-3.655.019-5.592,3.393-5.592,7.033,0,3.7,2.375,6.423,5.844,6.423,2.876,0,3.784-1.053,3.784-1.053l.009-2.159A3.018,3.018,0,0,1,665.8,937.4a3.619,3.619,0,0,1-1.447-.318,3.667,3.667,0,0,1-1.772-2.784c1.245-1.519,2.8-1.192,4.781-3.265,2.594-2.713.675-5.6-2.884-5.6m-2.118,7.414s-.443-6.171,1.878-6.345c.053,0,.1,0,.153,0,1.825,0,1.372,2.635.8,3.689-.893,1.646-2.057,1.818-2.833,2.662" transform="translate(-590.409 -878.5)" fill="#000"/>
  <path id="Path_104" data-name="Path 104" d="M634.456,922.071a1.613,1.613,0,1,0,1.647,1.612,1.63,1.63,0,0,0-1.647-1.612" transform="translate(-597.219 -879.379)" fill="#000"/>
  <path id="Path_105" data-name="Path 105" d="M649.008,925.473a5.832,5.832,0,0,0-3.315.979v2.331a2.97,2.97,0,0,1,2.57-1.847c1.8,0,1.929.9,1.919,1.344a1.893,1.893,0,0,1-.269,1.388c-.821,1.439-7.209,1.743-6.229,6.685.387,1.959,1.693,2.529,3.334,2.529a3.182,3.182,0,0,0,2.953-1.607c.24,1.49.992,1.574.992,1.574,1.847,0,3.531.006,3.531.006a3.373,3.373,0,0,1-1.375-2.675v-7.511c0-1.8-1.993-3.2-4.11-3.2m-1.177,11.866a1.582,1.582,0,0,1-1.381-1.7c0-3.336,2.732-3.8,3.463-4.688l.005,5.624a2.411,2.411,0,0,1-2.086.76" transform="translate(-594.402 -878.489)" fill="#000"/>
  <path id="Path_106" data-name="Path 106" d="M671.656,925.405c-2.118,0-4.041,1.4-4.005,3.193a4.243,4.243,0,0,0,1.991,3.565,17.256,17.256,0,0,0,1.82,1.14,2.293,2.293,0,0,1,1.415,1.94,2.366,2.366,0,0,1-2.623,2.186,3,3,0,0,1-2.577-1.885v2.385a6.219,6.219,0,0,0,3.363.949c2.414,0,4.858-1.834,4.8-4.39a3.958,3.958,0,0,0-.829-2.326,12.262,12.262,0,0,0-3.456-2.571,2.235,2.235,0,0,1-1.016-1.381c-.016-.448.2-1.351,2-1.351a2.979,2.979,0,0,1,2.5,1.847l-.008-2.235a5.828,5.828,0,0,0-3.377-1.066" transform="translate(-588.108 -878.507)" fill="#000"/>
</svg>
