<svg xmlns="http://www.w3.org/2000/svg" width="119.188" height="33.089" viewBox="0 0 119.188 33.089">
  <g id="Group_256" data-name="Group 256" transform="translate(-1099.669 -717.72)">
    <g id="Group_185" data-name="Group 185" transform="translate(1099.669 717.72)">
      <path id="Path_107" data-name="Path 107" d="M231.978,61.3l-1.478,6.3-1.745,0,1.278-5.38H228.4l-1.277,5.377-1.129,0-.35,1.3,6.131-.034,1.83-7.553Z" transform="translate(-142.764 -53.322)" fill="#000"/>
      <path id="Path_108" data-name="Path 108" d="M211.325,63.987c-2.184.055-2.968.865-3.284,2.171l-.3,1.388-6.829-.027,1.47-6.293h-1.635l-1.813,7.6,14.537.028,1.127-4.878Zm.824,3.559H209.36l.275-1.141a1.409,1.409,0,0,1,1.442-.879h1.539Z" transform="translate(-132.267 -53.294)" fill="#000"/>
      <path id="Path_109" data-name="Path 109" d="M177.5,69.214l-7.365-.02.842-3.588-1.628,0L168.21,70.5l10.59-.006,1.112-4.783-1.616,0Z" transform="translate(-120.197 -55.015)" fill="#000"/>
      <path id="Path_110" data-name="Path 110" d="M238.3,68.88l1.678,0,1.791-7.612-1.679,0Z" transform="translate(-147.734 -53.312)" fill="#000"/>
      <path id="Path_111" data-name="Path 111" d="M246.032,66.6l3.011,0c.868,0,.983.6.838,1.234-.125.532-.284,1.229-.284,1.229l-4.15.005-.317,1.361,12.989.029,1.194-5.179h-1.645l-.844,3.8-5.621-.008.235-1.046c.531-2.19.3-2.663-1.976-2.663l-3.142-.015Z" transform="translate(-150.418 -54.887)" fill="#000"/>
      <path id="Path_112" data-name="Path 112" d="M276.62,65.412l-.846,3.7-4.949-.011.895-3.8-1.646,0s-1.079,4.647-1.163,5.083c-.17.939-1.489.886-1.436.854l-.361,1.022a6.785,6.785,0,0,0,2.519-.2c.59-.362.594-.766.868-1.577l6.564.006,1.18-5.074Z" transform="translate(-159.055 -54.898)" fill="#000"/>
      <path id="Path_113" data-name="Path 113" d="M276.775,75.866l.366-1.172-1.522,0-.362,1.163Z" transform="translate(-162.255 -58.585)" fill="#000"/>
      <path id="Path_114" data-name="Path 114" d="M166.015,77.961h4.3l-.326,1.4h-2.822l-.418,1.8h2.7l-.33,1.4h-2.7l-.418,1.8h2.819l-.329,1.4h-4.3Z" transform="translate(-118.617 -59.869)" fill="#000"/>
      <path id="Path_115" data-name="Path 115" d="M174.406,77.961h2.026l.75,5.966,3.58-5.966h2.016l-1.828,7.8h-1.486l1.371-5.85-3.444,5.85h-1.258l-.7-5.85-1.373,5.85h-1.485Z" transform="translate(-121.913 -59.869)" fill="#000"/>
      <path id="Path_116" data-name="Path 116" d="M189.59,77.961h1.484l-1.828,7.8h-1.485Z" transform="translate(-127.878 -59.869)" fill="#000"/>
      <path id="Path_117" data-name="Path 117" d="M197.608,78.5a2.644,2.644,0,0,0-1.951-.549h-2.322l-1.827,7.8h1.484l.7-2.982,1.4,2.982h1.841l-1.5-2.872a3.5,3.5,0,0,0,1.594-.756,3.566,3.566,0,0,0,1.058-1.7A2.027,2.027,0,0,0,197.608,78.5Zm-1.017,2.006a1.553,1.553,0,0,1-.563.838,2.113,2.113,0,0,1-1.264.33h-.811l.535-2.308h.825a1.337,1.337,0,0,1,1.044.261A.863.863,0,0,1,196.591,80.506Z" transform="translate(-129.35 -59.865)" fill="#000"/>
      <path id="Path_118" data-name="Path 118" d="M207.108,77.95h-1.155l-5.166,7.8h1.635l1.36-2.02h2.844l.4,2.02h1.635Zm-2.46,4.383,1.416-2.363.3,2.363Z" transform="translate(-132.996 -59.865)" fill="#000"/>
      <path id="Path_119" data-name="Path 119" d="M215.912,79.363h-1.476l.328-1.4h4.459l-.335,1.4h-1.493l-1.5,6.4h-1.485Z" transform="translate(-138.349 -59.869)" fill="#000"/>
      <path id="Path_120" data-name="Path 120" d="M222.4,77.961h4.3l-.327,1.4h-2.82l-.421,1.8h2.7l-.327,1.4h-2.7l-.421,1.8H225.2l-.327,1.4h-4.3Z" transform="translate(-140.771 -59.869)" fill="#000"/>
      <path id="Path_121" data-name="Path 121" d="M230.9,83.47c-.143.625.3.984.886.984a1.339,1.339,0,0,0,1.273-.984c.2-.852-.477-1.109-1.092-1.317a2.357,2.357,0,0,1-1.222-.718,1.84,1.84,0,0,1-.274-1.5,3.04,3.04,0,0,1,2.882-2.217,1.767,1.767,0,0,1,1.826,2.217h-1.532a.661.661,0,0,0-.707-.814,1.02,1.02,0,0,0-.985.827c-.145.566.347.789.783.947a3.632,3.632,0,0,1,1.4.719,1.709,1.709,0,0,1,.433,1.775,3.4,3.4,0,0,1-3.184,2.469,1.92,1.92,0,0,1-2.034-2.388Z" transform="translate(-144.194 -59.774)" fill="#000"/>
      <path id="Path_122" data-name="Path 122" d="M246.961,78.362a3.268,3.268,0,0,0-2.075-.412H243l-1.841,7.8h1.5l.687-2.954h.288a4.289,4.289,0,0,0,2.5-.481,3.373,3.373,0,0,0,1.429-1.992A1.915,1.915,0,0,0,246.961,78.362Zm-.893,1.993a1.365,1.365,0,0,1-.948.962,4.238,4.238,0,0,1-1.168.083h-.274l.467-2.033h.275a4.834,4.834,0,0,1,1.1.055A.739.739,0,0,1,246.068,80.355Z" transform="translate(-148.86 -59.865)" fill="#000"/>
      <path id="Path_123" data-name="Path 123" d="M256.334,77.724a5.5,5.5,0,0,0-5.125,4.094,3.152,3.152,0,0,0,3.229,4.04,5.5,5.5,0,0,0,5.125-4.053A3.154,3.154,0,0,0,256.334,77.724Zm1.745,4.081a3.62,3.62,0,0,1-3.325,2.652,2.057,2.057,0,0,1-2.061-2.638A3.525,3.525,0,0,1,256,79.153l-.014-.028A2.059,2.059,0,0,1,258.079,81.8Z" transform="translate(-152.764 -59.776)" fill="#000"/>
      <path id="Path_124" data-name="Path 124" d="M266.146,83.47c-.146.625.29.984.886.984a1.335,1.335,0,0,0,1.271-.984c.2-.852-.476-1.109-1.09-1.317a2.314,2.314,0,0,1-1.22-.718,1.8,1.8,0,0,1-.275-1.5,3.035,3.035,0,0,1,2.885-2.217,1.762,1.762,0,0,1,1.817,2.217h-1.527a.665.665,0,0,0-.713-.814,1.021,1.021,0,0,0-.978.827c-.147.566.341.789.783.947a3.649,3.649,0,0,1,1.4.719,1.71,1.71,0,0,1,.429,1.775,3.389,3.389,0,0,1-3.183,2.469A1.918,1.918,0,0,1,264.6,83.47Z" transform="translate(-158.042 -59.774)" fill="#000"/>
      <path id="Path_125" data-name="Path 125" d="M276.164,79.363h-1.473l.326-1.4h4.462l-.332,1.4h-1.494l-1.5,6.4h-1.485Z" transform="translate(-162.022 -59.869)" fill="#000"/>
      <path id="Path_126" data-name="Path 126" d="M261,75.8l.371-1.168-1.528,0-.365,1.165Z" transform="translate(-156.057 -58.558)" fill="#000"/>
      <path id="Path_127" data-name="Path 127" d="M257.666,75.789l.365-1.168-1.52,0-.368,1.164Z" transform="translate(-154.745 -58.555)" fill="#000"/>
      <path id="Path_128" data-name="Path 128" d="M195.139,66.79l-1.649-.006s-.856,3.845-.973,4.221a1.2,1.2,0,0,1-1.276.9c-.007,0-.225,1-.225,1a5.422,5.422,0,0,0,2.172-.229c.586-.366.7-.577.969-1.734Z" transform="translate(-129.158 -55.478)" fill="#000"/>
      <path id="Path_129" data-name="Path 129" d="M188.446,68.764l1.677,0,1.8-7.68-1.678,0Z" transform="translate(-128.148 -53.238)" fill="#000"/>
      <path id="Path_130" data-name="Path 130" d="M180.293,66.594l.286-1.17-1.518,0-.285,1.162Z" transform="translate(-124.349 -54.943)" fill="#000"/>
      <path id="Path_131" data-name="Path 131" d="M176.96,66.585l.284-1.17-1.521,0-.284,1.165Z" transform="translate(-123.037 -54.938)" fill="#000"/>
      <path id="Path_132" data-name="Path 132" d="M227.558,75.37a1.381,1.381,0,0,1,.127-.392.78.78,0,0,1,.413-.391,1.055,1.055,0,0,1,.372-.075,2.5,2.5,0,0,1,.369,0,.517.517,0,0,1,.137.03l-.193.536a2.357,2.357,0,0,0-.365-.01.277.277,0,0,0-.168.047.147.147,0,0,0-.052.1c-.012.059.033.09.127.084a.865.865,0,0,1,.374.038c.072.041.106.2.067.406l-1.664,0,.107-.364Z" transform="translate(-143.335 -58.512)" fill="#000"/>
      <g id="Group_184" data-name="Group 184" transform="translate(0 0)">
        <path id="Path_133" data-name="Path 133" d="M127.229,79.114l-1.051-.437a16.5,16.5,0,0,0,4.658-4.44h0a16.544,16.544,0,0,0-26.818-19.376,25.877,25.877,0,0,0-4.08.752l-.031.009c-.135.035-.212.1-.231.185a.281.281,0,0,0,.107.246l1.829,1.844a16.256,16.256,0,0,1-6.746-1.357c-.137-.053-.232-.09-.28-.106a3.334,3.334,0,0,0-3.936,1.09,2.08,2.08,0,0,0-1.444,1.109,1.492,1.492,0,0,0,.136,1.226l.123.2.042-.233a1.146,1.146,0,0,1,.09-.248h0c.794-.422,3.9,1.565,5.072,2.318.186.12.337.216.44.279.259,4.877,3.839,6.375,7.3,7.823l.608.256c8.029,3.4,13.784,5.624,17.82,7.082a13.1,13.1,0,0,1-11.079-1.908,10.853,10.853,0,0,1-3.044-2.986l-4.841-1.915a14.684,14.684,0,0,0,5.916,7.7A16.535,16.535,0,0,0,125.649,79c1.244.4,2.121.668,2.7.841.265.079.471.141.625.189L132.01,81l-2.978-1.139C128.851,79.788,128.24,79.534,127.229,79.114Zm.805-6.852h0A13.058,13.058,0,0,1,122,76.954q-2.148-.882-4.832-1.971c-5.9-2.322-9.343-4.967-10.237-7.861a4.919,4.919,0,0,1,.668-4.261c3.878-5.256,16.125-5.711,20.313-5.852A13.114,13.114,0,0,1,128.034,72.262Zm-3.173-18.279a13.1,13.1,0,0,1,2.674,2.524,77.278,77.278,0,0,0-18.476-1.991A13.115,13.115,0,0,1,124.861,53.983ZM89.454,59.455l-.022.05c-.008.018-.019.041-.03.069a1.226,1.226,0,0,1-.029-.875,1.942,1.942,0,0,1,1.365-1.012l.037-.012.017-.035a3.175,3.175,0,0,1,3.738-1.034c.046.015.138.051.27.1,1.056.413,4.267,1.671,7.019,1.348l.183-.022-2.1-2.114a.151.151,0,0,1-.053-.075s.013-.026.1-.05l.033-.01a32.517,32.517,0,0,1,5.975-.942,73.541,73.541,0,0,1,21.764,1.892c.024.032.044.066.068.1-3.672.124-13,.505-18.1,3.872,2.254-1.6,6.5-3.55,13.962-4.094-10.438-1.5-14.8-1.276-20.17-.891-3.184.32-.961,3-.651,3.28-1.112.352-3.234.951-6.977-.948-3.42-1.889-4.546-.263-4.72-.014-1.286.239-1.622,1-1.66,1.4h0Zm2.864-1.9a1.563,1.563,0,0,1,1.208.115c-.1.028-.588.159-1.007.264-.35.087-.641.195-.682.084C91.806,57.926,91.858,57.688,92.319,57.557Zm2.971,4.6c.46.292.815.521.975.617.122,2.5.881,3.948,2.04,4.958A6.739,6.739,0,0,1,95.289,62.162Z" transform="translate(-89.125 -48.161)" fill="#000"/>
        <path id="Path_134" data-name="Path 134" d="M120.457,73.5c-2.4,5.626,5.308,9.53,8.35,10.521.712.288,6.979,1.03,10.312-6.94C134.653,79.867,124.6,80.251,120.457,73.5Z" transform="translate(-101.256 -58.117)" fill="#000"/>
      </g>
    </g>
  </g>
</svg>
