<svg id="Group_213" data-name="Group 213" xmlns="http://www.w3.org/2000/svg" width="98.594" height="21.67" viewBox="0 0 98.594 21.67">
  <path id="Path_279" data-name="Path 279" d="M508.564,211.829a1.41,1.41,0,0,1-1.261.688,1.356,1.356,0,0,1-1.23-.765,3.915,3.915,0,0,1-.435-1.947,7.755,7.755,0,0,1,.067-1.016,2.662,2.662,0,0,1,.264-.864,1.4,1.4,0,0,1,1.31-.784,1.4,1.4,0,0,1,1.3.738,4.116,4.116,0,0,1,.42,2.015,3.577,3.577,0,0,1-.44,1.937m-2.755,5.776c1.09,0,1.944.01,2.571.023a10.507,10.507,0,0,1,1.344.087,1.618,1.618,0,0,1,.963.592,1.412,1.412,0,0,1,.215.732,1.99,1.99,0,0,1-.769,1.752,3.858,3.858,0,0,1-2.235.546,4.667,4.667,0,0,1-1.478-.179,3.231,3.231,0,0,1-.884-.5,1.866,1.866,0,0,1-.5-.609,1.416,1.416,0,0,1-.159-.6,2.044,2.044,0,0,1,.269-1.075,2.923,2.923,0,0,1,.662-.774m3.018-11.188a8.613,8.613,0,0,0-1.493-.125,7.248,7.248,0,0,0-3.9.958,2.9,2.9,0,0,0-1.541,2.555,2.725,2.725,0,0,0,.722,1.914,5.593,5.593,0,0,0,2.257,1.328v.119c-.2.059-.46.132-.761.238a3.066,3.066,0,0,0-.772.351,2.319,2.319,0,0,0-.6.555,1.268,1.268,0,0,0-.234.774,1.76,1.76,0,0,0,.583,1.3,4.163,4.163,0,0,0,1.629.9v.131a5.142,5.142,0,0,0-2.61.609,1.648,1.648,0,0,0-.843,1.414,2.245,2.245,0,0,0,1.559,2.09,11.657,11.657,0,0,0,4.549.7,13.281,13.281,0,0,0,3.1-.3,7.484,7.484,0,0,0,2.154-.858A3.6,3.6,0,0,0,513.9,219.8a3.078,3.078,0,0,0,.415-1.555,2.682,2.682,0,0,0-.34-1.366,3.052,3.052,0,0,0-.865-.971,4.024,4.024,0,0,0-1.124-.587,4.928,4.928,0,0,0-1.306-.257c-.3-.007-.8-.029-1.513-.067s-1.4-.069-2.091-.081a4.067,4.067,0,0,1-1.442-.207.7.7,0,0,1-.234-1.083,1.569,1.569,0,0,1,.3-.311h1.853a8.052,8.052,0,0,0,2.021-.239,5.929,5.929,0,0,0,1.626-.664,3.325,3.325,0,0,0,1.1-1.073,2.543,2.543,0,0,0,.423-1.409,2.9,2.9,0,0,0-.221-1.1,3.479,3.479,0,0,0-.664-1h2.5v-1.185h-4.409q-.373-.1-1.1-.224" transform="translate(-457.002 -200.559)" fill="#000"/>
  <path id="Path_280" data-name="Path 280" d="M463.463,215.2a2.928,2.928,0,0,1-.712.606,1.97,1.97,0,0,1-1.034.247,1.382,1.382,0,0,1-1-.386,1.628,1.628,0,0,1-.4-1.232,2.469,2.469,0,0,1,.239-1.117,2.143,2.143,0,0,1,.661-.777,5.023,5.023,0,0,1,1.026-.565c.419-.177.838-.333,1.267-.473Zm4.317,1.059a.982.982,0,0,1-.473-.424,1.664,1.664,0,0,1-.153-.771c0-.359.019-1.094.054-2.221s.05-2.1.05-2.914a3.773,3.773,0,0,0-.414-1.888,2.821,2.821,0,0,0-1.121-1.106,4.865,4.865,0,0,0-1.656-.515,15.011,15.011,0,0,0-2.026-.125,8.958,8.958,0,0,0-1.725.18,7.127,7.127,0,0,0-1.649.505,4.163,4.163,0,0,0-1.233.8,1.482,1.482,0,0,0-.506,1.094,1.457,1.457,0,0,0,.493,1.147,2.087,2.087,0,0,0,1.448.441,3.141,3.141,0,0,0,.993-.115,2.028,2.028,0,0,0,.591-.341,1.008,1.008,0,0,0,.294-.441,1.389,1.389,0,0,0,.1-.463,2.572,2.572,0,0,0-.157-.855,4.128,4.128,0,0,1-.195-.669,2.992,2.992,0,0,1,.538-.274,2.245,2.245,0,0,1,.836-.135,1.531,1.531,0,0,1,.9.239,1.449,1.449,0,0,1,.5.587,2.254,2.254,0,0,1,.194.751c.029.294.045.537.045.719V210.5a14.2,14.2,0,0,1-2.095.694q-1.433.384-2.459.746a8.82,8.82,0,0,0-.985.424,2.946,2.946,0,0,0-.789.58,2.68,2.68,0,0,0-.58.874,3.1,3.1,0,0,0-.207,1.206,2.388,2.388,0,0,0,.936,1.976,3.48,3.48,0,0,0,2.25.747,6.422,6.422,0,0,0,1.383-.118,5.86,5.86,0,0,0,1.03-.362,4.583,4.583,0,0,0,.771-.442,8.148,8.148,0,0,0,.744-.636h.068a1.983,1.983,0,0,0,.895,1.138,4.06,4.06,0,0,0,2.053.4,5.762,5.762,0,0,0,1.441-.176,9.086,9.086,0,0,0,1.179-.378v-.794c-.226,0-.478-.007-.754-.02a1.647,1.647,0,0,1-.609-.1" transform="translate(-437.517 -200.559)" fill="#000"/>
  <path id="Path_281" data-name="Path 281" d="M489.334,206.406a3.7,3.7,0,0,0-1.836.5,6.713,6.713,0,0,0-1.666,1.362h-.045V206.69l-.169-.166-5.421.283v.8a3.758,3.758,0,0,1,.687.117,1.849,1.849,0,0,1,.518.221,1.7,1.7,0,0,1,.466.491,1.3,1.3,0,0,1,.194.707v6.33a1.3,1.3,0,0,1-.138.65.811.811,0,0,1-.5.372,2.972,2.972,0,0,1-.495.105c-.19.023-.383.045-.574.058v.794h7.606v-.794c-.169-.007-.442-.039-.813-.091a3.177,3.177,0,0,1-.812-.2.88.88,0,0,1-.422-.394,1.4,1.4,0,0,1-.127-.63v-5.973a3.685,3.685,0,0,1,1.023-.864,2.526,2.526,0,0,1,1.1-.346c-.028.124-.061.257-.1.4a2.316,2.316,0,0,0-.059.594,1.342,1.342,0,0,0,.577,1.18,2.4,2.4,0,0,0,1.4.4,1.756,1.756,0,0,0,1.409-.628,2.3,2.3,0,0,0-.107-3.065,2.324,2.324,0,0,0-1.7-.627" transform="translate(-447.854 -200.609)" fill="#000"/>
  <path id="Path_282" data-name="Path 282" d="M432.585,207.469c.226.029.511.078.851.144a4,4,0,0,1,.851.249,1.19,1.19,0,0,1,.592.462,1.356,1.356,0,0,1,.146.659v3.131a3.7,3.7,0,0,1-1.208.673,5.077,5.077,0,0,1-1.779.29,3.669,3.669,0,0,1-3.3-1.929,10.353,10.353,0,0,1-1.164-5.335,9.194,9.194,0,0,1,1.186-5.039,3.792,3.792,0,0,1,3.372-1.831,4.08,4.08,0,0,1,3.044,1.232,9.979,9.979,0,0,1,2.07,3.77h1l-.1-5.633h-.988l-.708.6a11.642,11.642,0,0,0-1.929-.695,9.464,9.464,0,0,0-2.546-.329,10.893,10.893,0,0,0-3.689.6,7.927,7.927,0,0,0-2.824,1.7,7.422,7.422,0,0,0-1.808,2.643,8.8,8.8,0,0,0-.625,3.342,8.4,8.4,0,0,0,.668,3.439,7.011,7.011,0,0,0,1.823,2.515,7.608,7.608,0,0,0,2.691,1.533,10.224,10.224,0,0,0,3.286.514,16.407,16.407,0,0,0,4.087-.577,13.924,13.924,0,0,0,3.355-1.229c-.013-.326-.027-.6-.031-.823s-.013-.511-.013-.874v-1.794a1.676,1.676,0,0,1,.149-.69.922.922,0,0,1,.614-.467,5.452,5.452,0,0,1,.68-.171c.182-.028.39-.055.626-.078v-.844h-8.376Z" transform="translate(-423.027 -196.909)" fill="#000"/>
  <path id="Path_283" data-name="Path 283" d="M584.871,212.094a3.085,3.085,0,0,1-.453-.149.884.884,0,0,1-.467-.382,1.389,1.389,0,0,1-.125-.64V205.59a3.8,3.8,0,0,0-.924-2.665,3.564,3.564,0,0,0-2.763-1.01,5.559,5.559,0,0,0-1.461.184,4.225,4.225,0,0,0-1.095.448,5.913,5.913,0,0,0-.846.6c-.23.2-.488.421-.777.668h-.047v-7.481l-.17-.176-5.659.283v.792a6.77,6.77,0,0,1,.774.1,2.076,2.076,0,0,1,.659.223,1.3,1.3,0,0,1,.479.587,1.883,1.883,0,0,1,.169.742v12.131a1.384,1.384,0,0,1-.129.647.863.863,0,0,1-.5.374,2.189,2.189,0,0,1-.5.111c-.184.02-.38.039-.577.052V213h6.93V212.2a3.392,3.392,0,0,1-.536-.11,1.874,1.874,0,0,1-.452-.172.823.823,0,0,1-.384-.385,1.609,1.609,0,0,1-.106-.635v-5.843c.092-.118.206-.253.338-.4a2.571,2.571,0,0,1,.529-.451,3.11,3.11,0,0,1,.767-.377,2.632,2.632,0,0,1,.846-.135,1.5,1.5,0,0,1,1.244.557,2.674,2.674,0,0,1,.437,1.676v5.092a1.817,1.817,0,0,1-.094.673.667.667,0,0,1-.337.348,1.271,1.271,0,0,1-.453.111c-.2.02-.382.039-.535.052V213h6.828V212.2a3.927,3.927,0,0,1-.612-.11" transform="translate(-486.888 -196.159)" fill="#000"/>
  <path id="Path_284" data-name="Path 284" d="M533.083,215.2a2.82,2.82,0,0,1-.713.606,1.945,1.945,0,0,1-1.03.247,1.39,1.39,0,0,1-1-.386,1.624,1.624,0,0,1-.4-1.232,2.47,2.47,0,0,1,.239-1.117,2.183,2.183,0,0,1,.664-.777,4.932,4.932,0,0,1,1.023-.565c.419-.177.84-.333,1.266-.473Zm4.319,1.059a.962.962,0,0,1-.471-.424,1.61,1.61,0,0,1-.152-.771c0-.359.016-1.094.048-2.221s.052-2.1.052-2.914a3.784,3.784,0,0,0-.415-1.888,2.783,2.783,0,0,0-1.117-1.106,4.886,4.886,0,0,0-1.66-.515,14.921,14.921,0,0,0-2.023-.125,8.972,8.972,0,0,0-1.728.18,7.068,7.068,0,0,0-1.646.505,4.129,4.129,0,0,0-1.234.8,1.485,1.485,0,0,0-.5,1.094,1.453,1.453,0,0,0,.488,1.147,2.091,2.091,0,0,0,1.447.441,3.191,3.191,0,0,0,1-.115,2.006,2.006,0,0,0,.586-.341,1.014,1.014,0,0,0,.3-.441,1.379,1.379,0,0,0,.1-.463,2.531,2.531,0,0,0-.158-.855,4.156,4.156,0,0,1-.2-.669,3.1,3.1,0,0,1,.542-.274,2.241,2.241,0,0,1,.836-.135,1.5,1.5,0,0,1,.9.239,1.447,1.447,0,0,1,.5.587,2.259,2.259,0,0,1,.19.751,6.769,6.769,0,0,1,.045.719V210.5a14.143,14.143,0,0,1-2.091.694q-1.439.384-2.458.746a8.246,8.246,0,0,0-.984.424,2.959,2.959,0,0,0-.794.58,2.71,2.71,0,0,0-.581.874,3.19,3.19,0,0,0-.2,1.206,2.4,2.4,0,0,0,.931,1.976,3.489,3.489,0,0,0,2.255.747,6.429,6.429,0,0,0,1.383-.118,5.8,5.8,0,0,0,1.03-.362,4.54,4.54,0,0,0,.767-.442,7.162,7.162,0,0,0,.745-.636h.069a1.99,1.99,0,0,0,.9,1.138,4.051,4.051,0,0,0,2.053.4,5.747,5.747,0,0,0,1.437-.176,9,9,0,0,0,1.184-.378v-.794c-.23,0-.48-.007-.759-.02a1.639,1.639,0,0,1-.607-.1" transform="translate(-467.751 -200.559)" fill="#000"/>
  <path id="Path_285" data-name="Path 285" d="M556.8,210.473a10.151,10.151,0,0,1-2.047-.692,1.252,1.252,0,0,1-.73-1.2,1.125,1.125,0,0,1,.5-.971,2.381,2.381,0,0,1,1.375-.343,3.148,3.148,0,0,1,2.078.819,4.479,4.479,0,0,1,1.364,1.953h.8l-.181-3.707h-.867l-.238.64a9.975,9.975,0,0,0-1.461-.44,8.255,8.255,0,0,0-1.9-.2,6.012,6.012,0,0,0-3.53.945,2.9,2.9,0,0,0-1.344,2.481,3.076,3.076,0,0,0,.305,1.426,3.168,3.168,0,0,0,.818,1.019,4.507,4.507,0,0,0,1.144.7,13.445,13.445,0,0,0,1.322.442c.514.145.948.267,1.3.37a5.26,5.26,0,0,1,.971.37,1.864,1.864,0,0,1,.626.489,1.1,1.1,0,0,1,.226.715,1.4,1.4,0,0,1-.505,1.192,2.52,2.52,0,0,1-1.538.386,3.318,3.318,0,0,1-1.474-.334,5.234,5.234,0,0,1-1.22-.829,6.226,6.226,0,0,1-.912-1.1,5.305,5.305,0,0,1-.566-1.1h-.829l.146,4.057h.885l.34-.739a7.277,7.277,0,0,0,1.634.657,7.515,7.515,0,0,0,2.153.308,6.718,6.718,0,0,0,3.813-.978,3.14,3.14,0,0,0,1.46-2.762,2.855,2.855,0,0,0-.943-2.2,6.794,6.794,0,0,0-2.973-1.367" transform="translate(-478.289 -200.577)" fill="#000"/>
</svg>
