<svg id="Group_190" data-name="Group 190" xmlns="http://www.w3.org/2000/svg" width="87.731" height="87.307" viewBox="0 0 87.731 87.307">
  <g id="Group_189" data-name="Group 189" transform="translate(0 0)">
    <g id="Group_188" data-name="Group 188">
      <g id="Group_187" data-name="Group 187">
        <path id="Path_137" data-name="Path 137" d="M967.654,213.146c-.221.22-3.467,3.151-3.77,3.466a5.273,5.273,0,0,0-1.1,3.158c0,.384.006,9.593,0,9.922a3.729,3.729,0,0,1-.793,2.051c-.25.249-1.778,1.637-1.912,1.784l.866.013c.281-.27,3.224-2.877,3.531-3.226a5.1,5.1,0,0,0,1.354-3.42c0-.426,0-9.149,0-9.535a3.683,3.683,0,0,1,1.011-2.608c.353-.393,1.513-1.36,1.717-1.578Z" transform="translate(-914.622 -213.117)" fill="#ddd"/>
        <path id="Path_138" data-name="Path 138" d="M968.919,233.432v3.957s1.154,1.195,1.383,1.437c1.068,1.136,1.055,3.2-2.325,6.5a6.859,6.859,0,0,1-4.609,2.173h-6.056l3.6,3.147h2.412a8.837,8.837,0,0,0,6.172-2.529,7.4,7.4,0,0,0,2.026-5.328V237.63a4.176,4.176,0,0,0-1.392-3.045c-.165-.163-1.212-1.153-1.212-1.153" transform="translate(-915.336 -207.273)" fill="#ddd"/>
        <path id="Path_139" data-name="Path 139" d="M977.022,233.826a1.846,1.846,0,0,1-1.079-.49,12.118,12.118,0,0,1-1.222-1.416,2.176,2.176,0,0,1,1.432-.448,1.289,1.289,0,0,1,1.03.353c.746,1.025.572,2-.161,2m-28.978-10.781H946.8a3.263,3.263,0,0,1,1.333,2.573c0,.6-.006,4.5,0,4.887.028,1.305.967,6.187,5.366,6.187h12.64s.041,7.756.041,8.086a3.488,3.488,0,0,1-.8,2.469c-.326.338-1.953,1.818-1.953,1.818l.91-.021c.369-.275,3.149-2.81,3.411-3.1a4.991,4.991,0,0,0,1.486-4.039v-5.146s1.128-1.2,1.458-1.471,2.515-2.35,2.515-2.35c0,2,.951,2.887,1.933,2.887a1.885,1.885,0,0,0,1.3-.55c.461-.438,1.95-1.8,2.284-2.132,1.026-1.013,1.6-4.177-.9-4.177H977.8c-1.511.011-3.314,2.2-3.521,2.46a5.335,5.335,0,0,1-1.056-1.114v1.938a3.021,3.021,0,0,1-2.006,1.072h-1.981v-1.953a3.971,3.971,0,0,1,.786-2.379c.332-.348,1.815-1.681,1.953-1.805l-.908.009c-.352.27-3.419,3.079-3.809,3.515a5.577,5.577,0,0,0-1.088,2.614l-14.307.014a3.219,3.219,0,0,1-2.95-3.256c0-.187.054-3.668.054-3.668,0-2.992-.779-3.306-.923-3.367" transform="translate(-918.113 -210.581)" fill="#ddd"/>
        <path id="Path_140" data-name="Path 140" d="M955.489,235.082l-2.415,2.416c1.646,1.644,2.2,2.467,2.361,3.212.129-.129,2.337-1.964,2.337-2.654,0-1.009-.665-1.354-2.283-2.974" transform="translate(-916.651 -206.899)" fill="#ddd"/>
        <path id="Path_141" data-name="Path 141" d="M952.969,230.712a5.494,5.494,0,0,0,1.393-1.235c.138-.147,4.3-4.432,4.3-4.432A28.742,28.742,0,0,1,961.8,228.8c.367.639.774,1.911-1.274,1.911Zm8.413-17.589s-.441.426-1.649,1.634c-.648.648-.464,2.043.888,3.4,0,0,.034,2.482.034,3.4a1.132,1.132,0,0,1-.288.621s-1.966-1.79-3.763-1.79h-2.678a4.9,4.9,0,0,0-3.212,1.673,2.571,2.571,0,0,0-.172,3.324l1.853,1.848a17,17,0,0,1,0-5.075,1.375,1.375,0,0,1,1.274-.955,1.04,1.04,0,0,1,.584.178,41.02,41.02,0,0,1,3.793,3.126s-4.882,5.1-5.074,5.3a2.665,2.665,0,0,1-1.538.715H951.4a1.814,1.814,0,0,1-1.505-.852s-.014,2.281-.014,2.487c0,.824,1.087,1.648,2.143,1.648h6.708a2.115,2.115,0,0,0,1.485-.549c.274-.249,2.075-2.06,2.253-2.255a1.767,1.767,0,0,0,.481-1.29c0-.239,0-1.345,0-2.548A7.01,7.01,0,0,0,961,222.751s.4-.3.423-1.354c.008-.289,0-2.621,0-2.621s.8.76.845,1.077c0,0,.858-.877,1.411-1.43.626-.627-.417-1.941-.9-2.426a4.375,4.375,0,0,1-1.4-2.874" transform="translate(-917.468 -213.123)" fill="#ddd"/>
        <path id="Path_142" data-name="Path 142" d="M946.844,231.613H945.6a2.974,2.974,0,0,1,1.333,2.621v6.027c0,3.925,3.236,7.551,7.167,7.551h3.284a4.745,4.745,0,0,0,3.857-1.534c.437-.389,1.005-1.026,1.212-1.257a4.177,4.177,0,0,0,1.418-3.412v-1.975a3.627,3.627,0,0,0-1.464-2.892c-.306-.307-1.147-1.107-1.147-1.107v4.04s.828.882,1.192,1.168a2.083,2.083,0,0,1-1.235,3.685c-.314,0-6.771,0-7.21.014h-.108a6.392,6.392,0,0,1-6.139-6.288V234.98c0-3.367-.922-3.367-.922-3.367" transform="translate(-918.653 -207.806)" fill="#ddd"/>
        <path id="Path_143" data-name="Path 143" d="M951.56,235.09l-2.416,2.416c1.646,1.646,2.2,2.467,2.362,3.212.13-.129,2.337-1.965,2.337-2.653,0-1.011-.663-1.354-2.283-2.975" transform="translate(-917.764 -206.897)" fill="#ddd"/>
        <path id="Path_144" data-name="Path 144" d="M933.022,247.134h-8.334a4.958,4.958,0,0,1,1.407,3.76l.04,10.1c0,2.535,1.014,2.605,1.014,2.605h8.213a2.268,2.268,0,0,0,2.51-2.053l.028-.969s-.592,1.217-3.043,1.217l-3.863-.005c-1.22,0-1.125-1.013-1.232-1.876v-5.543s.846-.021,1.8-.021c.322,0,.667-.015,1.03-.015a5.2,5.2,0,0,1,2.67.592,3.987,3.987,0,0,0-3.7-2.249h-1.8V250.9a4.723,4.723,0,0,0-.378-2l2.553.01c2.208,0,3.916-.033,5.692,1.151,0,0-.34-2.923-4.607-2.923" transform="translate(-924.688 -203.338)" fill="#ddd"/>
        <path id="Path_145" data-name="Path 145" d="M943.242,249.723a3.514,3.514,0,0,0-3.344,2.54s-.062-2.452-2.206-2.452l-2.1.006s1.217.5,1.217,2.618l0,7.845c0,2.59,1.044,2.636,1.044,2.636h3.461a3.357,3.357,0,0,1-1.329-2.657V253.3a1.966,1.966,0,0,1,2.058-1.361,1.92,1.92,0,0,1,1.755,1.873l-.005,6.465c0,2.628,1.03,2.636,1.03,2.636h3.475a3.434,3.434,0,0,1-1.329-2.657l-.009-6.96a1.948,1.948,0,0,1,3.8.539s-.006,5.9,0,6.45c.015,2.6.994,2.621,1.03,2.621,1.809,0,3.475.008,3.475.008a3.374,3.374,0,0,1-1.327-2.633v-7.066c0-2.741-2.239-3.468-3.908-3.468a3.374,3.374,0,0,0-3.151,2.479,3.7,3.7,0,0,0-3.627-2.5" transform="translate(-921.535 -202.645)" fill="#ddd"/>
        <path id="Path_146" data-name="Path 146" d="M953.626,249.792h-2.1s1.2.531,1.2,2.607l0,7.868v.011c0,2.594,1.036,2.609,1.062,2.609,1.809,0,3.46.008,3.46.008a3.324,3.324,0,0,1-1.333-2.637l-.013-.011.006-7.52c0-2.935-1.54-2.935-2.281-2.935" transform="translate(-917.08 -202.627)" fill="#ddd"/>
        <path id="Path_147" data-name="Path 147" d="M958.574,249.779l-2.1.006s1.219.5,1.219,2.617l-.006,7.857c0,2.592,1.046,2.636,1.046,2.636h3.458a3.359,3.359,0,0,1-1.329-2.658l0-6.431a1.883,1.883,0,0,1,.849-1.328,2.8,2.8,0,0,1,1.515-.446,2.661,2.661,0,0,1,2.074.971v-2.219a1.736,1.736,0,0,0-1.771-.943c-2.173,0-2.7,2.583-2.7,2.583-.177-2.04-.724-2.644-2.258-2.644" transform="translate(-915.643 -202.63)" fill="#ddd"/>
        <path id="Path_148" data-name="Path 148" d="M976.773,247.405a10.768,10.768,0,0,1-2.329,2.607,20,20,0,0,1-3.046,1.8l2.2.039-.005,9.115c0,2.529,1.058,2.529,1.058,2.529,1.9,0,3.456.006,3.456.006a3.262,3.262,0,0,1-1.338-2.556l.005-9.088c.913,0,.284.006.854.006a4.43,4.43,0,0,1,2.045.513l.01-1.977h-2.909Z" transform="translate(-911.406 -203.266)" fill="#ddd"/>
        <path id="Path_149" data-name="Path 149" d="M981.53,257s-.433-6.048,1.842-6.217q.077-.008.151-.008c1.788,0,1.345,2.583.784,3.617-.876,1.613-2.015,1.781-2.776,2.608m2.074-7.265h-.035c-3.584.018-5.484,3.327-5.484,6.891,0,3.626,2.329,6.3,5.729,6.3,2.821,0,3.71-1.033,3.71-1.033l.009-2.114a2.957,2.957,0,0,1-2.632,1.688,3.512,3.512,0,0,1-1.417-.314,3.591,3.591,0,0,1-1.737-2.727c1.221-1.489,2.745-1.171,4.685-3.2,2.544-2.661.663-5.487-2.827-5.487" transform="translate(-909.266 -202.641)" fill="#ddd"/>
        <path id="Path_150" data-name="Path 150" d="M954.069,246.432a1.581,1.581,0,1,0,1.613,1.582,1.6,1.6,0,0,0-1.613-1.582" transform="translate(-916.84 -203.709)" fill="#ddd"/>
        <path id="Path_151" data-name="Path 151" d="M967.223,261.411a1.552,1.552,0,0,1-1.353-1.663c0-3.27,2.678-3.721,3.393-4.594l.007,5.514a2.373,2.373,0,0,1-2.048.744m1.154-11.63a5.711,5.711,0,0,0-3.25.96v2.285a2.912,2.912,0,0,1,2.52-1.81c1.759,0,1.891.877,1.879,1.317a1.851,1.851,0,0,1-.264,1.359c-.8,1.41-7.065,1.708-6.105,6.553.379,1.92,1.659,2.479,3.269,2.479a3.122,3.122,0,0,0,2.894-1.574c.235,1.457.972,1.541.972,1.541,1.809,0,3.46.006,3.46.006a3.3,3.3,0,0,1-1.347-2.623v-7.362c0-1.76-1.954-3.131-4.029-3.131" transform="translate(-913.743 -202.629)" fill="#ddd"/>
        <path id="Path_152" data-name="Path 152" d="M990.674,249.714c-2.075,0-3.96,1.369-3.924,3.131a4.147,4.147,0,0,0,1.95,3.491,16.063,16.063,0,0,0,1.785,1.119,2.252,2.252,0,0,1,1.387,1.9A2.323,2.323,0,0,1,989.3,261.5a2.94,2.94,0,0,1-2.524-1.848v2.34a6.085,6.085,0,0,0,3.294.928c2.367,0,4.76-1.8,4.707-4.305a3.877,3.877,0,0,0-.813-2.278,11.96,11.96,0,0,0-3.387-2.52,2.2,2.2,0,0,1-.995-1.354c-.018-.438.195-1.324,1.958-1.324a2.918,2.918,0,0,1,2.45,1.81l-.006-2.191a5.715,5.715,0,0,0-3.31-1.045" transform="translate(-907.046 -202.648)" fill="#ddd"/>
        <rect id="Rectangle_593" data-name="Rectangle 593" width="86.729" height="0.85" transform="translate(0.713 64.771)" fill="#ddd"/>
        <path id="Path_153" data-name="Path 153" d="M948.733,280.737a2.059,2.059,0,0,1-1.137.319c-1.445,0-2.86-.492-3.409-3.035-1.334-6.475-1.35-6.489-1.35-6.489a4.323,4.323,0,0,0-1.322-2.271h2.266c.592,0,1.381.524,1.794,2.271,0,0,.064.494,1.362,5.957.206.957.567,2.659,1.594,2.659a.579.579,0,0,0,.392-.253c1.69-8.3,1.69-8.35,1.69-8.35s.352-1.874-.33-2.285h1.979c.584,0,1.425.6,1.139,2.309-.06.476-1.726,8.308-2.185,10.328a3.728,3.728,0,0,1-1.615,2.393h-3.126a5.221,5.221,0,0,0,2.146-3.028s.093-.384.113-.526" transform="translate(-919.88 -197.007)" fill="#ddd"/>
        <path id="Path_154" data-name="Path 154" d="M977.083,269.922v2.036a2.423,2.423,0,0,0-3.171-.472,1.257,1.257,0,0,0-.747,1.172v5.88a2.842,2.842,0,0,0,1.185,2.334h-3.061c-.9,0-.9-2.318-.9-2.318v-6.978s0-1.862-1.1-2.268l1.849-.023c1.342,0,1.85.364,1.972,2.153a2.6,2.6,0,0,1,2.4-2.352s1.286,0,1.57.834" transform="translate(-912.011 -197.052)" fill="#ddd"/>
        <path id="Path_155" data-name="Path 155" d="M989.854,279.769c1.25,0,2.453-2.129,2.453-4.8,0-2.638-1.2-4.808-2.453-4.808-1.232,0-2.414,2.17-2.414,4.808,0,2.673,1.182,4.8,2.414,4.8m.04-10.65c2.928,0,5.233,2.187,5.233,5.987,0,3.309-2.305,6.009-5.233,6.009-2.883,0-5.212-1.994-5.212-6.009,0-3.309,2.329-5.987,5.212-5.987" transform="translate(-907.576 -197.044)" fill="#ddd"/>
        <path id="Path_156" data-name="Path 156" d="M938.2,274.952a3.429,3.429,0,0,1,3.55,2.433c.462,1.391,1.094,3.461,2.814,4.038h-2.718c-.374-.028-1.741-.046-2.487-3.442-.264-1.254-1.158-3.029-2.414-2.158v3.726a2.313,2.313,0,0,0,1.059,1.874h-2.879c-.881-.09-.881-2.02-.881-2.02V269.77s0-2.207-1.015-2.83h2.21c1.008,0,1.506.917,1.506,2.648v5.227s3.362-2.95,3.083-4.956h2.652c.25,1.839-4.479,5.093-4.479,5.093" transform="translate(-922.499 -197.602)" fill="#ddd"/>
        <path id="Path_157" data-name="Path 157" d="M931.486,277.864c0-1.045-.717-1.947-2.845-3.144-2.5-1.431-3.373-2.668-3.4-4.419-.039-1.985,1.815-3.565,4.4-3.565a6.74,6.74,0,0,1,3.719,1.195l.015,2.3a3.436,3.436,0,0,0-2.912-2.273c-2.293,0-2.37,1.309-2.37,1.9,0,.567.324,1.139,1.28,1.711,1.291.756,4.889,2.751,4.889,5.416,0,2.854-2.629,4.722-5.29,4.722a7.292,7.292,0,0,1-3.707-1.05V278.2a3.369,3.369,0,0,0,2.95,2.217c2.509,0,3.269-1.54,3.269-2.549" transform="translate(-924.547 -197.655)" fill="#ddd"/>
        <path id="Path_158" data-name="Path 158" d="M981.55,279.846a1.221,1.221,0,0,0,1.072-.634v-7.166c-.611-1.861-1.965-1.861-1.965-1.861-1.747,0-1.9,3.171-1.9,5.382,0,2.324.857,4.279,2.794,4.279m1.942-10.5h2.46c-.569.5-.569,1.85-.569,1.85v7.346c0,1.758.19,4.521-1.864,5.8H980.4a4.959,4.959,0,0,0,2.269-4.325c0,.122-.317,1.089-1.866,1.089-2.943,0-4.947-2.4-4.947-5.669,0-3.837,2.117-6.325,4.849-6.325a2.511,2.511,0,0,1,2.046,1.138c.142-.908.744-.908.744-.908" transform="translate(-909.838 -197.044)" fill="#ddd"/>
        <path id="Path_159" data-name="Path 159" d="M970.65,280.887a2.925,2.925,0,0,1-1.2-2.29v-6.507c0-1.544-1.732-3.016-3.545-3.016a4.68,4.68,0,0,0-2.874,1.049V272.2a2.672,2.672,0,0,1,2.236-1.8c1.3,0,1.74.722,1.74,1.418a1.947,1.947,0,0,1-1.317,1.858c-1.825.858-4.521,1.524-4.521,4.607a2.835,2.835,0,0,0,2.9,2.82,2.683,2.683,0,0,0,2.687-1.589s.2,1.3.807,1.374Zm-3.94-1.948a2.166,2.166,0,0,1-1.617.827,1.555,1.555,0,0,1-1.534-1.593c0-2.569,2.494-3.325,3.151-4.075Z" transform="translate(-914.299 -197.056)" fill="#ddd"/>
        <path id="Path_160" data-name="Path 160" d="M959.353,267.953c-2.114-.016-3.688,2.607-3.688,6.352,0,2.844,1.188,5.305,2.552,5.958.613.276,2.57.711,4.078-1.631l-.02,2.4a7.221,7.221,0,0,1-3.329.692c-3.912,0-6.388-3.043-6.388-7.147,0-5.061,2.752-7.843,6.717-7.843a6.6,6.6,0,0,1,3.02.735l.03,2.52a3.3,3.3,0,0,0-2.971-2.038" transform="translate(-916.748 -197.654)" fill="#ddd"/>
      </g>
    </g>
  </g>
</svg>
