<svg id="Group_12" data-name="Group 12" xmlns="http://www.w3.org/2000/svg" width="292" height="46.169" viewBox="0 0 292 46.169">
  <path id="Path_3" data-name="Path 3" d="M362.865,324.479l21.042-44.584,20.98,44.584h-8.111l-3.783-8.233H374.7l-3.781,8.233Zm14.7-14.82h12.565l-6.283-13.845Z" transform="translate(-362.865 -279.895)" fill="#fff"/>
  <path id="Path_4" data-name="Path 4" d="M427.227,323.622v-42.51h27.079V288H434.85v10.124h18.236v6.893H434.85V316.73h19.884v6.892Z" transform="translate(-317.515 -279.038)" fill="#fff"/>
  <path id="Path_5" data-name="Path 5" d="M452.914,324.277V280.182l28.97,28.421V281.767h7.625v44.095l-28.97-28.3v26.713Z" transform="translate(-299.415 -279.693)" fill="#fff"/>
  <path id="Path_6" data-name="Path 6" d="M519.375,285.134v8.112a17.908,17.908,0,0,0-13.235-5.671,15.1,15.1,0,1,0,0,30.19,17.91,17.91,0,0,0,13.235-5.673V320.2a19.969,19.969,0,0,1-13.235,4.452,22.535,22.535,0,0,1-16.04-6.222,22.235,22.235,0,0,1,0-31.47,22.327,22.327,0,0,1,16.04-6.281A20.192,20.192,0,0,1,519.375,285.134Z" transform="translate(-277.811 -279.34)" fill="#fff"/>
  <path id="Path_7" data-name="Path 7" d="M527.074,323.622V307.155l-15.307-26.043H520l10.916,18.723,10.857-18.723h8.174l-15.309,26.043v16.467Z" transform="translate(-257.947 -279.038)" fill="#fff"/>
  <path id="Path_8" data-name="Path 8" d="M427.587,286.879c-3.9-3.963-9.392-5.915-16.407-5.915H395.994V303.79h0v1.3h16.3V298.1h-8.68V287.856h7.013c10.674,0,15.248,5.489,15.248,14.455,0,8.721-4.635,14.271-15.186,14.271h-7.074V311.86h-7.625v11.614h15.248c7.014,0,12.5-1.952,16.407-5.794s5.855-8.966,5.855-15.369S431.552,290.783,427.587,286.879Z" transform="translate(-339.522 -279.142)" fill="#f6921e"/>
</svg>
