<svg xmlns="http://www.w3.org/2000/svg" width="90.361" height="38.104" viewBox="0 0 90.361 38.104">
  <g id="Group_253" data-name="Group 253" transform="translate(-1732.374 -71.22)">
    <path id="Path_92" data-name="Path 92" d="M1829.135,76.209a3.46,3.46,0,0,1,2.018.64v1.333a1.779,1.779,0,0,0-1.491-1.105c-1.07,0-1.2.536-1.194.807a1.335,1.335,0,0,0,.605.825,7.149,7.149,0,0,1,2.062,1.535,2.369,2.369,0,0,1,.491,1.385,2.767,2.767,0,0,1-2.869,2.621,3.68,3.68,0,0,1-2.009-.57v-1.42a1.789,1.789,0,0,0,1.535,1.122,1.419,1.419,0,0,0,1.566-1.257c0-.018,0-.036.005-.053a1.373,1.373,0,0,0-.842-1.158,10.238,10.238,0,0,1-1.092-.684,2.524,2.524,0,0,1-1.185-2.132A2.219,2.219,0,0,1,1829.135,76.209Z" transform="translate(-46.735 -2.471)" fill="#d6d5d5"/>
    <path id="Path_93" data-name="Path 93" d="M1817.751,83.4a2.074,2.074,0,0,1-.874-.193,2.184,2.184,0,0,1-1.061-1.658c.746-.9,1.675-.711,2.851-1.948,1.553-1.623.4-3.343-1.719-3.343h-.018c-2.184.009-3.343,2.027-3.343,4.2a3.533,3.533,0,0,0,3.217,3.822c.093.008.187.012.281.013,1.72,0,2.263-.631,2.263-.631l.009-1.29A1.809,1.809,0,0,1,1817.751,83.4Zm-.93-6.509h.087c1.092,0,.816,1.57.474,2.2-.535.983-1.229,1.092-1.694,1.588.01,0-.253-3.685,1.133-3.791Z" transform="translate(-40.216 -2.497)" fill="#d6d5d5"/>
    <path id="Path_94" data-name="Path 94" d="M1782.135,76.288c.939,0,1.272.368,1.377,1.614,0,0,.328-1.571,1.649-1.571a1.054,1.054,0,0,1,1.079.57v1.351a1.622,1.622,0,0,0-1.263-.6,1.659,1.659,0,0,0-.922.272,1.138,1.138,0,0,0-.518.807v3.922a2.029,2.029,0,0,0,.809,1.615h-2.106s-.64-.026-.64-1.606v-4.79c0-1.29-.738-1.6-.738-1.6Z" transform="translate(-24.015 -2.506)" fill="#d6d5d5"/>
    <path id="Path_95" data-name="Path 95" d="M1775.744,71.22a.965.965,0,1,1-.983.966.966.966,0,0,1,.983-.966Z" transform="translate(-20.993 0)" fill="#d6d5d5"/>
    <path id="Path_96" data-name="Path 96" d="M1774.626,76.33c.448,0,1.386,0,1.386,1.79V82.7l.009.009a2.021,2.021,0,0,0,.816,1.606h-2.106c-.018,0-.65-.009-.65-1.588v-4.8c0-1.264-.728-1.588-.728-1.588h1.272Z" transform="translate(-20.296 -2.531)" fill="#d6d5d5"/>
    <path id="Path_97" data-name="Path 97" d="M1740.664,81.072a1.384,1.384,0,0,1-1.5,1.257l-.028,0h-5.007s-.614-.044-.614-1.588l-.026-6.159a3.008,3.008,0,0,0-.859-2.293h5.08c2.6,0,2.808,1.781,2.808,1.781a5.638,5.638,0,0,0-3.465-.7l-1.553-.009a2.884,2.884,0,0,1,.228,1.22v1.092h1.092a2.42,2.42,0,0,1,2.255,1.368,3.131,3.131,0,0,0-1.623-.359c-.219,0-.43.009-.631.009-.587,0-1.092.009-1.092.009v3.378c.062.526.009,1.14.754,1.14h2.348c1.492,0,1.857-.746,1.857-.746Z" transform="translate(-0.126 -0.528)" fill="#d6d5d5"/>
    <path id="Path_98" data-name="Path 98" d="M1758.4,82.665V78.733a1.188,1.188,0,0,0-2.316-.328l.009,4.246a2.1,2.1,0,0,0,.807,1.623h-2.114s-.631-.009-.631-1.605V78.734a1.171,1.171,0,0,0-1.07-1.14,1.2,1.2,0,0,0-1.255.825v4.234a2.091,2.091,0,0,0,.807,1.623h-2.107s-.64-.026-.64-1.605V77.892c0-1.29-.737-1.6-.737-1.6h1.281c1.31,0,1.342,1.491,1.342,1.491a2.137,2.137,0,0,1,2.035-1.544,2.249,2.249,0,0,1,2.211,1.529,2.056,2.056,0,0,1,1.921-1.509,2.109,2.109,0,0,1,2.363,1.819,2.132,2.132,0,0,1,.017.293v4.308a2.065,2.065,0,0,0,.8,1.609s-1.017-.009-2.114-.009C1759.009,84.261,1758.413,84.253,1758.4,82.665Z" transform="translate(-8.312 -2.487)" fill="#d6d5d5"/>
    <path id="Path_99" data-name="Path 99" d="M1796.529,82.7V78.216c0-1.07-1.194-1.9-2.456-1.9a3.466,3.466,0,0,0-1.983.587v1.395a1.766,1.766,0,0,1,1.53-1.1c1.071,0,1.149.535,1.149.8a1.164,1.164,0,0,1-.158.833c-.492.86-4.308,1.044-3.72,3.991a1.761,1.761,0,0,0,1.982,1.507l.016,0a1.9,1.9,0,0,0,1.763-.956c.141.886.6.939.6.939,1.105,0,2.106.009,2.106.009A2.062,2.062,0,0,1,1796.529,82.7Zm-3.158.693a.943.943,0,0,1-.825-1.009c0-1.992,1.632-2.273,2.075-2.8l.009,3.36a1.5,1.5,0,0,1-1.259.447Z" transform="translate(-28.952 -2.522)" fill="#d6d5d5"/>
    <path id="Path_100" data-name="Path 100" d="M1804.819,80.984V75.43l-1.342-.026a12.528,12.528,0,0,0,1.856-1.092,6.5,6.5,0,0,0,1.419-1.588v1.825h1.773l-.009,1.2a2.693,2.693,0,0,0-1.246-.315h-.518V80.97a1.989,1.989,0,0,0,.816,1.562h-2.1C1805.46,82.519,1804.819,82.519,1804.819,80.984Z" transform="translate(-35.216 -0.745)" fill="#d6d5d5"/>
    <path id="Path_102" data-name="Path 102" d="M1739.3,104.482a7.542,7.542,0,0,1,3.554.72,5.133,5.133,0,0,1,2.1,2.053,9.162,9.162,0,0,1,1.009,3.211,34.222,34.222,0,0,1-.071,9,9.276,9.276,0,0,1-1.157,3.36,5.073,5.073,0,0,1-2.2,1.966,8.268,8.268,0,0,1-3.495.65h-6.665V104.473h6.931Zm-.824,17.853a3.615,3.615,0,0,0,1.79-.377,2.615,2.615,0,0,0,1.07-1.263,7.416,7.416,0,0,0,.526-2.316q.133-1.435.132-3.579c0-1.194-.044-2.238-.109-3.141a7.712,7.712,0,0,0-.483-2.246,2.806,2.806,0,0,0-1.092-1.351,3.542,3.542,0,0,0-1.921-.456H1736.6v14.742h1.878Z" transform="translate(0 -16.47)" fill="#d6d5d5"/>
    <path id="Path_103" data-name="Path 103" d="M1767.451,124.088a8.675,8.675,0,0,0,.109,1.368,4.48,4.48,0,0,0,.342,1.176,2.281,2.281,0,0,0,.614.825,1.47,1.47,0,0,0,.939.307,1.653,1.653,0,0,0,1.5-.737,5.472,5.472,0,0,0,.65-2.228h3.636a6.377,6.377,0,0,1-1.465,4.2,5.6,5.6,0,0,1-4.259,1.439,6.746,6.746,0,0,1-3.439-.737,4.488,4.488,0,0,1-1.816-1.938,7.535,7.535,0,0,1-.719-2.7c-.088-1-.132-2-.132-2.992a20.271,20.271,0,0,1,.218-3.058,7.433,7.433,0,0,1,.874-2.614,4.805,4.805,0,0,1,1.895-1.825,6.906,6.906,0,0,1,3.3-.671,6.467,6.467,0,0,1,2.895.57,4.322,4.322,0,0,1,1.775,1.614,6.628,6.628,0,0,1,.874,2.527,21.083,21.083,0,0,1,.237,3.308v.913h-8.014v1.255Zm4.027-5.263a4.179,4.179,0,0,0-.307-1.177,1.658,1.658,0,0,0-.614-.737,1.87,1.87,0,0,0-1.01-.254,1.714,1.714,0,0,0-1.009.281,2,2,0,0,0-.631.737,3.668,3.668,0,0,0-.342,1.018,6.036,6.036,0,0,0-.109,1.114v.614h4.141c-.024-.6-.069-1.139-.122-1.6Z" transform="translate(-15.372 -21.137)" fill="#d6d5d5"/>
    <path id="Path_104" data-name="Path 104" d="M1795.44,104.49v20.967h-4.054V104.49Z" transform="translate(-29.227 -16.478)" fill="#d6d5d5"/>
    <path id="Path_105" data-name="Path 105" d="M1808.685,104.02v3.465h-4.053V104.02Zm0,5.4v15.8h-4.053v-15.8Z" transform="translate(-35.788 -16.245)" fill="#d6d5d5"/>
    <path id="Path_106" data-name="Path 106" d="M1828.366,114.728l-3.965,15.8h-4.7l-4.08-15.8h4.228l2.264,11.309h.062l2.14-11.309Z" transform="translate(-41.23 -21.549)" fill="#d6d5d5"/>
    <path id="Path_107" data-name="Path 107" d="M1845.936,124.084a8.7,8.7,0,0,0,.109,1.368,4.494,4.494,0,0,0,.342,1.176,2.288,2.288,0,0,0,.614.825,1.472,1.472,0,0,0,.939.307,1.654,1.654,0,0,0,1.5-.737,5.49,5.49,0,0,0,.649-2.228h3.641a6.382,6.382,0,0,1-1.465,4.2,5.6,5.6,0,0,1-4.259,1.439,6.745,6.745,0,0,1-3.439-.737,4.561,4.561,0,0,1-1.825-1.938,7.538,7.538,0,0,1-.72-2.7c-.087-1-.131-2-.131-2.992a20.256,20.256,0,0,1,.218-3.058,7.436,7.436,0,0,1,.874-2.614,4.8,4.8,0,0,1,1.895-1.825,6.9,6.9,0,0,1,3.29-.676,6.467,6.467,0,0,1,2.895.57,4.318,4.318,0,0,1,1.772,1.614,6.763,6.763,0,0,1,.874,2.527,21.069,21.069,0,0,1,.237,3.308v.913h-8.01Zm4.027-5.263a4.174,4.174,0,0,0-.307-1.177,1.66,1.66,0,0,0-.614-.737,1.846,1.846,0,0,0-1.009-.254,1.764,1.764,0,0,0-1.018.281,1.909,1.909,0,0,0-.631.737,3.648,3.648,0,0,0-.342,1.018,6,6,0,0,0-.11,1.114v.614h4.152a15.535,15.535,0,0,0-.119-1.6Z" transform="translate(-54.241 -21.132)" fill="#d6d5d5"/>
    <path id="Path_108" data-name="Path 108" d="M1873.589,114.322v2.114h.061a5.721,5.721,0,0,1,1.5-1.834,3.386,3.386,0,0,1,2.141-.693c.109,0,.237.009.368.018s.254.026.368.043v3.878c-.219-.017-.43-.035-.631-.043s-.413-.018-.631-.018a3.975,3.975,0,0,0-1.053.15,2.846,2.846,0,0,0-.965.483,2.489,2.489,0,0,0-.7.874,3.039,3.039,0,0,0-.263,1.333v9.484h-4.07V114.322Z" transform="translate(-68.02 -21.142)" fill="#d6d5d5"/>
    <path id="Path_109" data-name="Path 109" d="M1891.862,125.47a2.469,2.469,0,0,0,.546,1.658,1.956,1.956,0,0,0,1.57.631,2.257,2.257,0,0,0,1.5-.474,1.751,1.751,0,0,0,.561-1.412,1.49,1.49,0,0,0-.436-1.158,3.476,3.476,0,0,0-1.027-.631l-2.851-1.027a5.494,5.494,0,0,1-2.527-1.657,4.261,4.261,0,0,1-.851-2.747,5.111,5.111,0,0,1,.328-1.833,3.832,3.832,0,0,1,1.027-1.51,5.055,5.055,0,0,1,1.807-1.026,8.176,8.176,0,0,1,2.658-.387,6,6,0,0,1,4.08,1.176,4.212,4.212,0,0,1,1.325,3.317v.65h-3.647a3.251,3.251,0,0,0-.394-1.807,1.565,1.565,0,0,0-1.395-.57,2.129,2.129,0,0,0-1.333.43,1.5,1.5,0,0,0-.57,1.281,1.677,1.677,0,0,0,.368,1.061,2.776,2.776,0,0,0,1.394.79l2.438.824a5.517,5.517,0,0,1,2.7,1.685,4.586,4.586,0,0,1,.789,2.833,5.076,5.076,0,0,1-.437,2.184,4.306,4.306,0,0,1-1.22,1.544,4.715,4.715,0,0,1-1.856.874,9.932,9.932,0,0,1-2.36.263,10.354,10.354,0,0,1-2.839-.328,4.064,4.064,0,0,1-1.79-.966,3.5,3.5,0,0,1-.922-1.57,7.54,7.54,0,0,1-.264-2.075v-.561h3.647v.537Z" transform="translate(-77.196 -21.128)" fill="#d6d5d5"/>
  </g>
</svg>
