<svg id="Group_194" data-name="Group 194" xmlns="http://www.w3.org/2000/svg" width="92" height="29.427" viewBox="0 0 92 29.427">
  <g id="Group_193" data-name="Group 193" transform="translate(0 0)">
    <g id="Group_192" data-name="Group 192" transform="translate(0.221)">
      <g id="Group_191" data-name="Group 191">
        <path id="Path_161" data-name="Path 161" d="M934.981,115.88c0-1.056-.017-1.242-1.02-1.242-.971,0-1.142-.035-1.142-.239,0-.323.34-.323.6-.323.715,0,1.413.034,2.127.034.732,0,1.463-.034,1.975-.034.374,0,.56.034.56.2,0,.272-.374.272-.834.272-.357,0-.8.017-.8.595v2.69a.728.728,0,0,1-.357.7,8.383,8.383,0,0,1-3.8.782c-3.046,0-5.888-1.752-5.888-5.208,0-3.591,2.672-5.752,6.246-5.752a9.539,9.539,0,0,1,2.825.443c.664.186.715.425.715,2.11,0,.136-.068.136-.222.136-.374,0-.613-2.179-3.217-2.179-1.191,0-4.544.324-4.544,5.089a4.593,4.593,0,0,0,4.323,4.851,5.23,5.23,0,0,0,1.362-.171c.561-.17,1.089-.221,1.089-1.787Z" transform="translate(-926.404 -108.153)" fill="#d6d5d5"/>
        <path id="Path_162" data-name="Path 162" d="M942.508,109.875c0-.6-.459-.7-1.174-.731-.306-.018-.613-.069-.613-.29,0-.238.256-.256.409-.256.681,0,1.276.068,2.059.068.646,0,1.277-.068,1.923-.068.324,0,.561.035.561.307,0,.2-.442.239-.851.239-.477,0-.852.135-.852.987v7.71c0,.544.255.6.682.6a15.084,15.084,0,0,0,1.889-.136c1.209-.17,1.821-1.565,2.059-1.565.171,0,.2.153.2.289a10.064,10.064,0,0,1-.255,1.752.349.349,0,0,1-.34.307c-.9,0-1.974-.068-4.545-.068-.817,0-1.616.068-2.434.068-.407,0-.442-.1-.442-.272,0-.239.2-.256.392-.272,1-.085,1.327-.187,1.327-1.141Z" transform="translate(-926.529 -108.156)" fill="#d6d5d5"/>
        <path id="Path_163" data-name="Path 163" d="M958.481,114.907c-.136-.426-.2-.426-1.6-.443-1.157-.017-1.43.051-1.5.187a25.135,25.135,0,0,0-1.209,3.37c0,.341.358.477.494.511.527.136.867.2.867.34,0,.2-.272.2-.391.2-.46,0-1-.068-1.5-.068-.647,0-1.31.068-1.89.068-.136,0-.2-.051-.2-.2,0-.221.442-.187.868-.34a.705.705,0,0,0,.51-.425l4.341-9.854a.185.185,0,0,1,.17-.1.2.2,0,0,1,.2.118l3.165,9.038c.324.936.664,1.157.885,1.225.46.136.783.085.783.34,0,.17-.136.2-.34.2-.732,0-1.311-.068-1.974-.068-.63,0-1.225.068-1.889.068a.215.215,0,0,1-.238-.187c0-.2.34-.256.953-.357.1-.017.425-.154.425-.443a2.167,2.167,0,0,0-.1-.425Zm-2.74-1.583a1.093,1.093,0,0,0-.1.306,5.332,5.332,0,0,0,1.226.085c.1,0,1.191,0,1.191-.1a1.125,1.125,0,0,0-.085-.324l-.9-2.689c-.016-.034-.034-.1-.1-.1-.034,0-.068.035-.085.085Z" transform="translate(-926.62 -108.15)" fill="#d6d5d5"/>
        <path id="Path_164" data-name="Path 164" d="M975.617,109.705c0-.494-.255-.477-1.362-.561-.221-.018-.561-.018-.561-.256,0-.272.306-.29.51-.29.629,0,1.277.068,1.906.068.493,0,1.141-.068,1.5-.068.186,0,.392.051.392.272-.034.222-.239.273-.579.273-1.072,0-1.123.306-1.123,1.583v8.254c0,.324-.035.647-.289.647-.222,0-.443-.239-.647-.477l-7.234-8.391a.213.213,0,0,0-.136-.068c-.05,0-.05.085-.05.324l.034,5.463c0,.425.034.663.034,1.021,0,.919.392,1,.8,1.038.834.068,1.327.051,1.327.324,0,.221-.154.221-.324.221-.545,0-1.242-.068-1.974-.068-1.412,0-1.651.068-2.179.068-.118,0-.306-.018-.306-.187,0-.238.085-.256,1.242-.357.357-.035.493-.187.493-.46l.2-6.722c.017-.392.035-.749.035-.868,0-1.141-.239-1.191-.749-1.242-1-.085-1.209-.085-1.209-.34,0-.187.256-.307.528-.307.238,0,.63.068,1.191.068.494,0,.732-.068.936-.068a.866.866,0,0,1,.681.408l6.671,7.864c.034.034.051.085.137.085.118,0,.1-.187.1-.46Z" transform="translate(-926.735 -108.156)" fill="#d6d5d5"/>
        <path id="Path_165" data-name="Path 165" d="M983.162,119.013c-.493,0-1.123.068-1.531.068-.085,0-.306,0-.306-.171,0-.136.118-.289.63-.374.374-.068.766-.119.766-1.106v-8c0-.323-.715-.288-1.157-.323-.392-.035-.51-.035-.51-.221,0-.29.459-.29.663-.29h1.549c.834,0,1.634-.1,2.723-.1,3.574,0,6.467,1.77,6.467,5.872,0,2.553-2.348,4.646-5.276,4.646Zm1.022-2.127c0,1.191,1.072,1.719,2.179,1.719a4.592,4.592,0,0,0,4.492-4.562,5.149,5.149,0,0,0-5.242-5.038c-1.4,0-1.429.307-1.429.545Z" transform="translate(-926.872 -108.155)" fill="#d6d5d5"/>
        <path id="Path_166" data-name="Path 166" d="M997.381,109.807c0-.442-.17-.528-.8-.663-.528-.1-.75-.137-.75-.34,0-.154.239-.205.494-.205.63,0,2.026.068,2.451.068.51,0,2.91-.068,4.356-.068.255,0,.255.187.255.546v1.633c0,.068-.068.1-.136.1-.221,0-.186-.186-.46-.766-.255-.595-.339-.867-3.233-.867-.613,0-.715.221-.715.8v2.944c0,.34.256.374.852.374h1.481c1.259,0,.867-1.463,1.292-1.463.222,0,.239.153.239.34,0,.391-.068.63-.068,1.43,0,.714.068,1.174.068,1.651,0,.153-.017.289-.187.289-.256,0-.272-.272-.357-.766-.153-.885-.306-1-2.4-1-.8,0-.92.1-.92.443v3.3c0,.766.068.851,2.043.851,1.157,0,1.548-.17,1.905-.578.817-.936.732-1.378,1.021-1.378.153,0,.171.085.171.17,0,.068-.051.154-.068.272l-.324,1.737c-.051.272-.153.357-.392.357h-4.85a21.1,21.1,0,0,0-2.23.068c-.136,0-.408,0-.408-.2,0-.256.306-.221.731-.34.443-.136.936-.051.936-.766Z" transform="translate(-927.01 -108.156)" fill="#d6d5d5"/>
        <path id="Path_167" data-name="Path 167" d="M1009.388,109.636c0-.357-.407-.442-1.02-.492-.188-.018-.6-.035-.6-.273,0-.2.221-.272.374-.272.136,0,1.463.068,1.974.068.766,0,1.549-.068,2.315-.068,1.412,0,3.132.511,3.132,2.622,0,1.736-1.838,2.365-1.838,2.621,0,.085.05.153.136.29l2.008,3.3a2.186,2.186,0,0,0,1.515,1.106c.46.1.8.119.8.307,0,.085-.05.153-.17.153-.714,0-1-.018-1.548-.018-1.378,0-1.447,0-1.532-.153l-2.5-4.408a1.31,1.31,0,0,0-1.073-.511c-.51,0-.51.136-.51.46v2.944c0,.851,0,.987,1.191,1.225.306.068.681.085.681.324,0,.2-.375.221-.443.221-.63,0-1.276-.068-1.905-.068-.783,0-1.549.068-2.366.068-.085,0-.289-.035-.272-.221,0-.29.425-.256.834-.324.41-.051.817-.187.817-.783Zm1.464,3.626c0,.153.153.2.952.2.988,0,2.3-.136,2.3-2.264,0-1.684-1.294-2.093-2.672-2.093a.493.493,0,0,0-.578.527Z" transform="translate(-927.106 -108.156)" fill="#d6d5d5"/>
      </g>
    </g>
    <path id="Path_168" data-name="Path 168" d="M927.543,129.107c0-1.165-.065-1.461-.773-1.525l-.5-.047a.252.252,0,0,1,.016-.4c.849-.076,1.92-.124,3.383-.124a6,6,0,0,1,2.645.44,2.07,2.07,0,0,1,1.2,1.969,2.281,2.281,0,0,1-1.606,2.157c0,.158.125.2.3.236a2.607,2.607,0,0,1,2.11,2.629c0,1.827-1.354,3.055-4.19,3.055-.456,0-1.227-.046-1.89-.046-.691,0-1.227.032-1.809.046a.306.306,0,0,1-.032-.394l.283-.045c.835-.143.867-.317.867-1.97Zm1.29,2.095c0,.441.017.473.82.441,1.605-.062,2.472-.535,2.472-2.014a2.081,2.081,0,0,0-2.346-2.127,1.926,1.926,0,0,0-.727.1c-.155.047-.218.123-.218.408Zm0,3.654a3.08,3.08,0,0,0,.332,1.716,1.531,1.531,0,0,0,1.243.441c1.4,0,2.472-.631,2.472-2.2,0-1.244-.63-2.692-3.132-2.692-.852,0-.915.095-.915.409Z" transform="translate(-926.18 -108.279)" fill="#d6d5d5"/>
    <path id="Path_169" data-name="Path 169" d="M944.542,131.012a11.364,11.364,0,0,0-.3-3.258.964.964,0,0,0-.786-.331l-.4-.032a.287.287,0,0,1,.033-.378c.6.031,1.181.046,1.795.046.662,0,1.086-.016,1.653-.046a.271.271,0,0,1,.033.378l-.379.032a.928.928,0,0,0-.788.379,14.083,14.083,0,0,0-.22,3.21v1.78a5.494,5.494,0,0,1-1.1,3.764,4.167,4.167,0,0,1-3.008,1.15,4.483,4.483,0,0,1-2.945-.866c-.834-.694-1.228-1.843-1.228-3.718v-3.716c0-1.636-.031-1.9-.944-1.982l-.395-.032c-.094-.064-.062-.33.033-.378.787.031,1.322.046,1.952.046.646,0,1.164-.016,1.935-.046.1.048.129.314.036.378l-.379.032c-.915.078-.945.346-.945,1.982v3.4c0,2.536.787,4.205,3.2,4.205,2.283,0,3.148-1.8,3.148-4.191Z" transform="translate(-926.304 -108.279)" fill="#d6d5d5"/>
    <path id="Path_170" data-name="Path 170" d="M957.405,134.776c0,.472,0,2.344.046,2.757a.284.284,0,0,1-.3.173c-.188-.269-.645-.82-2.016-2.38l-3.652-4.156c-.426-.487-1.5-1.779-1.826-2.124h-.032a3.967,3.967,0,0,0-.08,1.022V133.5a12.374,12.374,0,0,0,.283,3.259c.095.173.411.268.8.3l.488.045a.288.288,0,0,1-.031.394c-.71-.031-1.261-.046-1.842-.046-.661,0-1.086.016-1.638.046a.289.289,0,0,1-.031-.394l.425-.045c.36-.048.614-.143.692-.317a15.1,15.1,0,0,0,.206-3.243V128.95a1.451,1.451,0,0,0-.347-1.134,1.711,1.711,0,0,0-.976-.377l-.268-.032c-.1-.1-.1-.332.031-.394.663.046,1.5.046,1.779.046a5.231,5.231,0,0,0,.725-.046,21.816,21.816,0,0,0,2.692,3.463l1.528,1.717c1.085,1.212,1.858,2.093,2.6,2.851h.03a1.6,1.6,0,0,0,.063-.664v-3.369a11.15,11.15,0,0,0-.314-3.258c-.1-.14-.348-.238-.979-.315l-.265-.032c-.111-.1-.1-.345.03-.394.726.031,1.262.046,1.858.046.678,0,1.088-.016,1.623-.046a.278.278,0,0,1,.031.394l-.221.032c-.5.077-.818.206-.88.331a12.624,12.624,0,0,0-.238,3.242Z" transform="translate(-926.361 -108.279)" fill="#d6d5d5"/>
    <path id="Path_171" data-name="Path 171" d="M961.433,129.424c0-1.654-.033-1.907-.945-1.984l-.395-.032c-.095-.065-.062-.345.033-.394.772.031,1.275.046,1.984.046.614,0,1.148-.016,1.826-.046.093.048.125.329.033.394l-.3.032c-.913.095-.945.331-.945,1.984v1.81c0,.3.033.6.205.6a.9.9,0,0,0,.441-.171c.22-.189.631-.6.8-.756l1.7-1.685c.3-.285,1.071-1.086,1.228-1.307a.462.462,0,0,0,.109-.252c0-.061-.061-.111-.266-.158l-.426-.094a.263.263,0,0,1,.034-.394c.55.031,1.177.046,1.73.046s1.085-.016,1.559-.046a.292.292,0,0,1,.033.394,3.945,3.945,0,0,0-1.465.439,15.9,15.9,0,0,0-2.2,1.828l-1.417,1.337c-.22.221-.364.362-.364.488s.1.238.3.488c1.5,1.716,2.709,3.134,3.938,4.425a1.976,1.976,0,0,0,1.256.646l.429.045a.277.277,0,0,1-.034.394c-.409-.031-1.024-.046-1.763-.046-.646,0-1.2.016-1.921.046-.111-.031-.157-.3-.063-.394l.362-.063c.221-.031.38-.078.38-.157,0-.095-.113-.22-.223-.362-.3-.378-.707-.8-1.305-1.479l-1.26-1.418c-.9-1.007-1.149-1.323-1.526-1.323-.236,0-.268.2-.268.757v2.03c0,1.654.033,1.875.914,1.97l.424.045c.095.063.063.347-.033.394-.771-.031-1.305-.046-1.919-.046-.646,0-1.18.016-1.827.046a.3.3,0,0,1-.031-.394l.316-.045c.833-.128.865-.317.865-1.97Z" transform="translate(-926.474 -108.279)" fill="#d6d5d5"/>
    <path id="Path_172" data-name="Path 172" d="M972.2,129.424c0-1.637-.033-1.875-.961-1.984l-.252-.032c-.095-.065-.063-.345.032-.394.677.031,1.212.048,1.857.048h2.96a20.628,20.628,0,0,0,2.125-.048,18.242,18.242,0,0,1,.253,2.093.311.311,0,0,1-.395.034c-.237-.742-.378-1.294-1.2-1.495a7.282,7.282,0,0,0-1.528-.1h-1.135c-.472,0-.472.033-.472.631v3.15c0,.439.049.439.519.439h.915a5.763,5.763,0,0,0,1.338-.094c.189-.061.3-.159.38-.552l.124-.645a.31.31,0,0,1,.41.017c0,.377-.062.99-.062,1.59,0,.567.062,1.164.062,1.511a.313.313,0,0,1-.41.018l-.141-.616a.673.673,0,0,0-.487-.6,5.147,5.147,0,0,0-1.214-.08h-.915c-.47,0-.519.015-.519.424v2.22c0,.837.049,1.371.3,1.639.19.188.52.362,1.905.362a4.589,4.589,0,0,0,2.016-.237,3.923,3.923,0,0,0,1.117-1.526.289.289,0,0,1,.394.11,13.671,13.671,0,0,1-.707,2.189c-1.417-.031-2.819-.046-4.218-.046h-1.419c-.676,0-1.212.016-2.141.046a.306.306,0,0,1-.032-.394l.519-.045c.9-.08.978-.317.978-1.97Z" transform="translate(-926.57 -108.279)" fill="#d6d5d5"/>
    <path id="Path_173" data-name="Path 173" d="M981.522,129.438c0-1.5-.047-1.763-.692-1.84l-.505-.064a.265.265,0,0,1,.014-.4c.882-.076,1.971-.124,3.513-.124a5.579,5.579,0,0,1,2.628.471,2.345,2.345,0,0,1,1.307,2.206,2.908,2.908,0,0,1-1.967,2.629c-.079.1,0,.253.08.378a16.969,16.969,0,0,0,3.163,4.189,1.9,1.9,0,0,0,1.087.44.133.133,0,0,1,.015.222,2.531,2.531,0,0,1-.692.078c-1.34,0-2.141-.394-3.26-1.984-.41-.582-1.055-1.669-1.542-2.375a1.125,1.125,0,0,0-1.117-.506c-.711,0-.741.015-.741.347v1.982c0,1.654.03,1.842.943,1.97l.331.045a.308.308,0,0,1-.032.394c-.71-.031-1.243-.046-1.874-.046-.661,0-1.228.016-1.969.046-.1-.046-.125-.282-.029-.394l.393-.045c.912-.112.944-.317.944-1.97Zm1.292,2.251a1.272,1.272,0,0,0,.046.522c.046.045.283.078,1.087.078a2.616,2.616,0,0,0,1.618-.41,2.254,2.254,0,0,0,.789-1.952,2.321,2.321,0,0,0-2.52-2.425c-.975,0-1.021.062-1.021.5Z" transform="translate(-926.649 -108.279)" fill="#d6d5d5"/>
    <path id="Path_174" data-name="Path 174" d="M991.815,129.454c0-1.668-.034-1.938-.961-2.015l-.394-.032c-.095-.065-.064-.345.031-.394.786.031,1.324.046,1.984.046.63,0,1.166-.016,1.952-.046.1.048.127.329.031.394l-.394.032c-.929.077-.96.347-.96,2.015v5.605c0,1.669.032,1.889.96,2l.394.045c.1.063.066.347-.031.394-.786-.031-1.322-.046-1.952-.046-.66,0-1.2.016-1.984.046a.305.305,0,0,1-.031-.394l.394-.045c.927-.112.961-.333.961-2Z" transform="translate(-926.759 -108.279)" fill="#d6d5d5"/>
    <path id="Path_175" data-name="Path 175" d="M1005.674,134.776c0,.472,0,2.344.045,2.757a.28.28,0,0,1-.3.173c-.188-.269-.645-.82-2.014-2.38l-3.656-4.156c-.424-.487-1.5-1.779-1.824-2.124H997.9a4.092,4.092,0,0,0-.078,1.022V133.5a12.374,12.374,0,0,0,.283,3.259c.095.173.408.268.8.3l.488.045a.291.291,0,0,1-.031.394c-.709-.031-1.26-.046-1.842-.046-.662,0-1.087.016-1.638.046a.291.291,0,0,1-.03-.394l.422-.045c.363-.048.614-.143.694-.317a15.225,15.225,0,0,0,.2-3.243V128.95a1.436,1.436,0,0,0-.347-1.134,1.707,1.707,0,0,0-.973-.377l-.269-.032c-.1-.1-.1-.332.031-.394.66.046,1.5.046,1.78.046a5.271,5.271,0,0,0,.724-.046,21.683,21.683,0,0,0,2.691,3.463l1.525,1.717c1.089,1.212,1.862,2.093,2.6,2.851h.033a1.645,1.645,0,0,0,.061-.664v-3.369a11.083,11.083,0,0,0-.314-3.258c-.095-.14-.347-.238-.978-.315l-.265-.032c-.111-.1-.095-.345.03-.394.726.031,1.261.046,1.859.046.678,0,1.085-.016,1.622-.046a.279.279,0,0,1,.033.394l-.221.032c-.5.077-.819.206-.882.331a12.623,12.623,0,0,0-.237,3.242Z" transform="translate(-926.722 -108.279)" fill="#d6d5d5"/>
    <path id="Path_176" data-name="Path 176" d="M1017.891,135.844c0,.63.092,1.006.378,1.118a.134.134,0,0,1-.018.189,3.605,3.605,0,0,0-.771.14,12.343,12.343,0,0,1-2.818.411,6.546,6.546,0,0,1-4.8-1.749,4.952,4.952,0,0,1-1.448-3.575,5.408,5.408,0,0,1,1.415-3.73,6.518,6.518,0,0,1,4.99-1.843,9.434,9.434,0,0,1,2,.236,4.071,4.071,0,0,0,.979.142,18.165,18.165,0,0,0,.234,2.284c-.047.125-.331.142-.422.047-.443-1.7-1.625-2.237-3.23-2.237-3.054,0-4.394,2.173-4.394,4.535,0,3.023,1.561,5.4,4.727,5.4.973,0,1.557-.205,1.73-.474a1.766,1.766,0,0,0,.155-.9v-.631c0-1.321-.043-1.416-1.02-1.527l-.695-.077a.264.264,0,0,1,0-.394c.456.03,1.322.048,2.253.048.615,0,1.15-.019,1.667-.048a.273.273,0,0,1,.017.394l-.25.031c-.662.077-.677.52-.677,1.321Z" transform="translate(-926.893 -108.277)" fill="#d6d5d5"/>
    <path id="Path_177" data-name="Path 177" d="M927.451,122.21c0-.493-.009-.573-.285-.6l-.117-.009a.094.094,0,0,1,.012-.118c.232.01.391.015.586.015s.346,0,.58-.015a.1.1,0,0,1,.009.118l-.115.009c-.276.024-.286.1-.286.6v1.663c0,.494.01.558.286.592l.115.014a.1.1,0,0,1-.009.117c-.234-.009-.393-.013-.58-.013s-.354,0-.586.013c-.03-.013-.038-.089-.012-.117l.117-.014c.276-.034.285-.1.285-.592Z" transform="translate(-926.191 -108.266)" fill="#d6d5d5"/>
    <path id="Path_178" data-name="Path 178" d="M936.008,123.788c0,.14,0,.7.013.818a.084.084,0,0,1-.088.052c-.056-.081-.192-.244-.6-.707l-1.082-1.231c-.127-.144-.443-.528-.543-.63H933.7a1.275,1.275,0,0,0-.023.3v1.017a3.674,3.674,0,0,0,.085.967c.027.053.121.079.239.089l.143.014a.087.087,0,0,1-.009.117c-.211-.009-.373-.013-.547-.013-.2,0-.323,0-.487.013a.089.089,0,0,1-.009-.117l.126-.014c.107-.014.182-.043.206-.094a4.513,4.513,0,0,0,.06-.962v-1.348a.428.428,0,0,0-.1-.335.5.5,0,0,0-.289-.112l-.078-.009a.081.081,0,0,1,.009-.118c.2.015.443.015.527.015a1.445,1.445,0,0,0,.215-.015,6.275,6.275,0,0,0,.8,1.027l.453.51c.323.357.551.622.771.845h.01a.488.488,0,0,0,.018-.2v-1a3.264,3.264,0,0,0-.092-.968c-.03-.041-.106-.068-.292-.092l-.078-.009c-.033-.031-.029-.1.011-.118.212.01.373.015.55.015.2,0,.322,0,.481-.015a.08.08,0,0,1,.009.118l-.065.009c-.149.024-.243.06-.26.1a3.745,3.745,0,0,0-.071.962Z" transform="translate(-926.271 -108.266)" fill="#d6d5d5"/>
    <path id="Path_179" data-name="Path 179" d="M942.769,123.88c0,.489.007.56.277.583l.151.014a.089.089,0,0,1-.011.117c-.264-.009-.424-.013-.61-.013s-.351,0-.65.013a.083.083,0,0,1,0-.117l.17-.014c.267-.023.287-.094.287-.583v-2.087c0-.144,0-.15-.138-.15h-.258a.961.961,0,0,0-.575.117.846.846,0,0,0-.209.324.091.091,0,0,1-.12-.035,4.516,4.516,0,0,0,.176-.7.128.128,0,0,1,.09,0c.027.15.184.145.4.145h1.891c.251,0,.293-.009.36-.131.026-.01.078,0,.088.014a2.709,2.709,0,0,0-.071.71.086.086,0,0,1-.122.009.6.6,0,0,0-.115-.34.93.93,0,0,0-.543-.117h-.33c-.142,0-.135.006-.135.159Z" transform="translate(-926.378 -108.265)" fill="#d6d5d5"/>
    <path id="Path_180" data-name="Path 180" d="M949.218,122.2c0-.484-.008-.557-.284-.588l-.075-.009a.094.094,0,0,1,.011-.118c.2.01.359.015.551.015h.876a5.938,5.938,0,0,0,.631-.015,4.88,4.88,0,0,1,.072.621.086.086,0,0,1-.114.01c-.072-.22-.114-.384-.356-.443a2.262,2.262,0,0,0-.453-.029h-.335c-.14,0-.14.01-.14.186v.934c0,.131.014.131.154.131h.272a1.585,1.585,0,0,0,.395-.03c.056-.017.089-.045.114-.162l.036-.192a.094.094,0,0,1,.122,0c0,.112-.02.3-.02.471s.02.346.02.45a.1.1,0,0,1-.122,0l-.042-.183c-.019-.084-.051-.156-.145-.178a1.529,1.529,0,0,0-.357-.024h-.272c-.14,0-.154,0-.154.126v.659c0,.246.014.407.089.484.056.055.153.107.563.107a1.4,1.4,0,0,0,.6-.069,1.189,1.189,0,0,0,.332-.453.086.086,0,0,1,.116.032,4.193,4.193,0,0,1-.21.65c-.421-.009-.837-.013-1.252-.013h-.418c-.2,0-.359,0-.635.013-.03-.013-.036-.089-.009-.117l.154-.014c.265-.023.288-.094.288-.583Z" transform="translate(-926.385 -108.266)" fill="#d6d5d5"/>
    <path id="Path_181" data-name="Path 181" d="M956.43,122.205c0-.443-.014-.523-.208-.546l-.147-.019a.08.08,0,0,1,0-.116c.262-.024.584-.038,1.041-.038a1.634,1.634,0,0,1,.778.141.693.693,0,0,1,.388.654.865.865,0,0,1-.583.779c-.023.028,0,.076.024.113a5.071,5.071,0,0,0,.939,1.241.57.57,0,0,0,.321.129.041.041,0,0,1,.007.066.719.719,0,0,1-.206.023c-.4,0-.636-.116-.967-.588-.121-.172-.312-.493-.458-.7a.332.332,0,0,0-.333-.148c-.208,0-.218,0-.218.1v.588c0,.489.01.548.278.583l.1.014c.029.024.021.1-.009.117-.209-.009-.368-.013-.555-.013s-.364,0-.581.013c-.03-.013-.038-.083-.012-.117l.117-.014c.27-.034.281-.094.281-.583Zm.382.668a.4.4,0,0,0,.013.155.926.926,0,0,0,.324.023.8.8,0,0,0,.482-.121.675.675,0,0,0,.232-.58.689.689,0,0,0-.748-.718c-.29,0-.3.02-.3.15Z" transform="translate(-926.45 -108.266)" fill="#d6d5d5"/>
    <path id="Path_182" data-name="Path 182" d="M966.439,123.788c0,.14,0,.7.014.818a.089.089,0,0,1-.09.052c-.054-.081-.19-.244-.6-.707l-1.081-1.231c-.125-.144-.444-.528-.544-.63h-.009a1.241,1.241,0,0,0-.022.3v1.017a3.635,3.635,0,0,0,.084.967c.028.053.121.079.238.089l.145.014a.087.087,0,0,1-.01.117c-.209-.009-.373-.013-.546-.013-.2,0-.321,0-.485.013a.087.087,0,0,1-.01-.117l.128-.014c.106-.014.18-.043.2-.094a4.582,4.582,0,0,0,.06-.962v-1.348a.425.425,0,0,0-.1-.335.5.5,0,0,0-.289-.112l-.081-.009a.086.086,0,0,1,.012-.118c.2.015.442.015.526.015a1.416,1.416,0,0,0,.215-.015,6.332,6.332,0,0,0,.8,1.027l.453.51c.325.357.554.622.772.845h.011a.55.55,0,0,0,.016-.2v-1a3.3,3.3,0,0,0-.093-.968c-.027-.041-.1-.068-.288-.092l-.08-.009c-.033-.031-.028-.1.009-.118.216.01.374.015.551.015.2,0,.322,0,.483-.015a.085.085,0,0,1,.009.118l-.066.009c-.149.024-.244.06-.263.1a3.884,3.884,0,0,0-.068.962Z" transform="translate(-926.517 -108.266)" fill="#d6d5d5"/>
    <path id="Path_183" data-name="Path 183" d="M973.378,123.5c-.034-.1-.05-.119-.191-.119h-.7c-.118,0-.145.015-.179.113l-.163.489a1.866,1.866,0,0,0-.1.388c0,.058.023.084.135.094l.155.014a.079.079,0,0,1-.009.117c-.123-.009-.266-.009-.486-.013-.154,0-.322.008-.449.013a.1.1,0,0,1-.009-.117l.155-.014a.313.313,0,0,0,.28-.229c.083-.214.213-.518.408-1.039l.478-1.262a.688.688,0,0,0,.08-.331.541.541,0,0,0,.243-.178.068.068,0,0,1,.07.039c.059.207.135.422.205.628l.638,1.876c.135.4.2.473.4.5l.129.014a.1.1,0,0,1,0,.117c-.193-.009-.356-.013-.568-.013s-.4.008-.536.013a.081.081,0,0,1-.011-.117l.138-.014c.1-.01.163-.036.163-.084a.881.881,0,0,0-.062-.247Zm-.924-.416c-.036.109-.032.113.1.113h.577c.134,0,.144-.02.1-.146l-.252-.761a3.053,3.053,0,0,0-.108-.294h-.009a2.525,2.525,0,0,0-.112.273Z" transform="translate(-926.589 -108.266)" fill="#d6d5d5"/>
    <path id="Path_184" data-name="Path 184" d="M980.262,123.88c0,.489.009.56.279.583l.15.014a.1.1,0,0,1-.008.117c-.268-.009-.425-.013-.613-.013s-.351,0-.65.013a.085.085,0,0,1,0-.117l.169-.014c.267-.023.291-.094.291-.583v-2.087c0-.144,0-.15-.141-.15h-.256a.951.951,0,0,0-.573.117.838.838,0,0,0-.21.324.1.1,0,0,1-.123-.035,4.649,4.649,0,0,0,.179-.7.125.125,0,0,1,.089,0c.029.15.183.145.4.145h1.892c.251,0,.294-.009.363-.131a.091.091,0,0,1,.087.014,2.8,2.8,0,0,0-.073.71.083.083,0,0,1-.119.009c-.017-.115-.047-.289-.117-.34a.938.938,0,0,0-.545-.117H980.4c-.137,0-.133.006-.133.159Z" transform="translate(-926.655 -108.265)" fill="#d6d5d5"/>
    <path id="Path_185" data-name="Path 185" d="M986.713,122.21c0-.493-.009-.573-.285-.6l-.117-.009c-.027-.02-.017-.1.01-.118.232.01.393.015.589.015s.345,0,.578-.015a.1.1,0,0,1,.012.118l-.119.009c-.275.024-.285.1-.285.6v1.663c0,.494.01.558.285.592l.119.014c.026.019.018.1-.012.117-.233-.009-.393-.013-.578-.013s-.357,0-.589.013a.1.1,0,0,1-.01-.117l.117-.014c.276-.034.285-.1.285-.592Z" transform="translate(-926.73 -108.266)" fill="#d6d5d5"/>
    <path id="Path_186" data-name="Path 186" d="M992.376,123.073a1.614,1.614,0,0,1,1.665-1.647,1.534,1.534,0,0,1,1.618,1.6,1.6,1.6,0,0,1-1.618,1.63A1.575,1.575,0,0,1,992.376,123.073Zm2.818.1c0-.773-.341-1.6-1.234-1.6-.485,0-1.116.331-1.116,1.353,0,.691.338,1.589,1.257,1.589C994.66,124.512,995.194,124.09,995.194,123.172Z" transform="translate(-926.779 -108.266)" fill="#d6d5d5"/>
    <path id="Path_187" data-name="Path 187" d="M1003.479,123.788c0,.14,0,.7.013.818a.082.082,0,0,1-.086.052c-.059-.081-.2-.244-.6-.707l-1.084-1.231c-.124-.144-.443-.528-.542-.63h-.011a1.338,1.338,0,0,0-.022.3v1.017a3.623,3.623,0,0,0,.086.967c.028.053.118.079.237.089l.143.014a.085.085,0,0,1-.007.117c-.211-.009-.373-.013-.549-.013-.2,0-.32,0-.484.013a.086.086,0,0,1-.01-.117l.127-.014c.109-.014.181-.043.2-.094a4.328,4.328,0,0,0,.062-.962v-1.348a.427.427,0,0,0-.1-.335.507.507,0,0,0-.292-.112l-.08-.009a.084.084,0,0,1,.012-.118c.2.015.443.015.527.015a1.442,1.442,0,0,0,.214-.015,6.28,6.28,0,0,0,.8,1.027l.453.51c.323.357.55.622.771.845h.01a.49.49,0,0,0,.018-.2v-1a3.259,3.259,0,0,0-.095-.968c-.027-.041-.1-.068-.288-.092l-.079-.009c-.032-.031-.029-.1.009-.118.215.01.375.015.553.015.2,0,.321,0,.479-.015a.085.085,0,0,1,.011.118l-.066.009c-.151.024-.243.06-.262.1a3.828,3.828,0,0,0-.069.962Z" transform="translate(-926.788 -108.266)" fill="#d6d5d5"/>
    <path id="Path_188" data-name="Path 188" d="M1010.421,123.5c-.034-.1-.053-.119-.191-.119h-.709c-.114,0-.142.015-.176.113l-.164.489a1.86,1.86,0,0,0-.1.388c0,.058.023.084.133.094l.153.014a.074.074,0,0,1-.009.117c-.119-.009-.264-.009-.484-.013-.156,0-.322.008-.448.013a.09.09,0,0,1-.009-.117l.152-.014a.313.313,0,0,0,.282-.229c.084-.214.213-.518.409-1.039l.477-1.262a.669.669,0,0,0,.081-.331.548.548,0,0,0,.242-.178.068.068,0,0,1,.07.039c.061.207.135.422.205.628l.64,1.876c.134.4.194.473.4.5l.124.014c.034.024.022.1,0,.117-.191-.009-.355-.013-.565-.013s-.4.008-.538.013a.079.079,0,0,1-.008-.117l.135-.014c.1-.01.161-.036.161-.084a1.054,1.054,0,0,0-.055-.247Zm-.926-.416c-.037.109-.033.113.1.113h.573c.137,0,.143-.02.1-.146l-.252-.761a2.429,2.429,0,0,0-.107-.294h-.01a2.171,2.171,0,0,0-.11.273Z" transform="translate(-926.893 -108.266)" fill="#d6d5d5"/>
    <path id="Path_189" data-name="Path 189" d="M1016.516,122.2c0-.49-.01-.564-.3-.588l-.118-.009a.1.1,0,0,1,.011-.118c.26.01.42.015.607.015s.34,0,.576-.015a.1.1,0,0,1,.01.118l-.112.009c-.276.024-.284.1-.284.588v1.623c0,.3.012.415.1.505.049.051.142.107.508.107.4,0,.5-.019.57-.06a.971.971,0,0,0,.306-.462c.03-.024.117,0,.117.029a3.625,3.625,0,0,1-.2.653c-.236-.009-.679-.013-1.163-.013h-.428c-.194,0-.346,0-.607.013a.1.1,0,0,1-.011-.117l.143-.014c.27-.029.28-.094.28-.583Z" transform="translate(-926.995 -108.266)" fill="#d6d5d5"/>
  </g>
</svg>
