<svg xmlns="http://www.w3.org/2000/svg" width="92.78" height="32.438" viewBox="0 0 92.78 32.438">
  <g id="Group_197" data-name="Group 197" transform="translate(0 0)">
    <rect id="Rectangle_594" data-name="Rectangle 594" width="4.238" height="20.848" transform="translate(88.542 5.356)" fill="#000"/>
    <path id="Path_190" data-name="Path 190" d="M5775.052,11194.546l-6.881-20.848h4.4l4.068,13.2,4.068-13.2h4.425l-.045.138-6.865,20.71h-3.166l-.024-.071" transform="translate(-5698.829 -11168.342)" fill="#000"/>
    <path id="Path_191" data-name="Path 191" d="M5549.519,11173.693h-3.306l-7.533,20.708-.051.14h4.427l1.247-3.652h7.184l1.217,3.652h4.428Zm-4.014,13.595,2.46-7.079,2.378,7.079Z" transform="translate(-5485.62 -11168.337)" fill="#000"/>
    <path id="Path_192" data-name="Path 192" d="M5312.692,11194.546h-4.238v-8.638h-6.777v8.638h-4.238V11173.7h4.238v8.436h6.777v-8.436h4.238Z" transform="translate(-5261.591 -11168.342)" fill="#000"/>
    <g id="Group_195" data-name="Group 195">
      <path id="Path_193" data-name="Path 193" d="M4793.631,11349.348l15.047,5.1v-10.205l-15.047-5.105Z" transform="translate(-4793.631 -11322.009)" fill="#000"/>
      <path id="Path_194" data-name="Path 194" d="M5005.106,11098.416v10.211l15.048,5.1v-10.207l-15.047-5.105Z" transform="translate(-4990.059 -11098.416)" fill="#000"/>
    </g>
    <g id="Group_196" data-name="Group 196" transform="translate(15.047 11.115)">
      <path id="Path_195" data-name="Path 195" d="M5005.106,11398.078Z" transform="translate(-5005.106 -11387.872)" fill="#000"/>
      <path id="Path_196" data-name="Path 196" d="M5005.106,11254.637v10.206l15.047-5.105Z" transform="translate(-5005.106 -11254.637)" fill="#000"/>
    </g>
    <path id="Path_197" data-name="Path 197" d="M4808.678,11187.984l-15.047-5.105v10.21h0Z" transform="translate(-4793.631 -11176.869)" fill="#000"/>
    <path id="Path_198" data-name="Path 198" d="M4793.631,11259.741l15.047,5.1v-10.206Z" transform="translate(-4793.631 -11243.521)" fill="#000"/>
    <path id="Path_199" data-name="Path 199" d="M5020.153,11336.533l-.007,0Zm-15.047-5.105,15.047,5.1v-10.206Z" transform="translate(-4990.059 -11310.106)" fill="#000"/>
  </g>
</svg>
