<svg id="Group_200" data-name="Group 200" xmlns="http://www.w3.org/2000/svg" width="109.358" height="39.264" viewBox="0 0 109.358 39.264">
  <g id="Group_198" data-name="Group 198" transform="translate(0 28.627)">
    <path id="Path_200" data-name="Path 200" d="M553.573,62.9H552.4a.121.121,0,0,1-.121-.121V59.355c0-.94.046-1.746.065-2.469,0-.09.043-.288-.012-.3s-.109.126-.123.147c-.2.309-.559.885-.773,1.2l-2.986,4.185a.122.122,0,0,1-.2,0l-3-4.187c-.214-.315-.566-.918-.769-1.223-.065-.1-.056-.124-.111-.111s-.016.178-.014.267c.019.723.058,1.482.058,2.424v3.487a.121.121,0,0,1-.121.121h-1.177a.121.121,0,0,1-.121-.121V52.742a.121.121,0,0,1,.22-.07c.913,1.29,4.389,6.205,5.029,7.14a.118.118,0,0,0,.2,0c.641-.935,4.117-5.85,5.029-7.14a.121.121,0,0,1,.219.07V62.776A.121.121,0,0,1,553.573,62.9Z" transform="translate(-543 -52.471)" fill="#000"/>
    <path id="Path_201" data-name="Path 201" d="M568.183,63.147c-2.689,0-4.17-1.571-4.17-4.424V53a.178.178,0,0,1,.178-.178h1.056a.179.179,0,0,1,.179.178v5.738c0,2.063.9,3.066,2.756,3.066s2.77-1,2.77-3.066V53a.179.179,0,0,1,.179-.178h1.056a.178.178,0,0,1,.178.178v5.723c0,2.812-1.524,4.424-4.184,4.424Z" transform="translate(-547.055 -52.509)" fill="#000"/>
    <path id="Path_202" data-name="Path 202" d="M588.363,57.535a.215.215,0,0,1-.04-.364,2.273,2.273,0,0,0,.976-1.8c0-1.5-1.221-2.552-2.973-2.552H583.08a.215.215,0,0,0-.215.214v9.684a.216.216,0,0,0,.215.217h3.471c2.055,0,3.383-1.19,3.383-3.03A2.724,2.724,0,0,0,588.363,57.535ZM584.278,54.3a.216.216,0,0,1,.216-.216H586.1c1.085,0,1.785.553,1.785,1.4a1.6,1.6,0,0,1-1.785,1.434h-1.607a.216.216,0,0,1-.216-.216Zm2.2,7.38h-1.987a.216.216,0,0,1-.216-.215V58.308a.214.214,0,0,1,.216-.214h1.916a1.924,1.924,0,0,1,2.067,1.8A1.8,1.8,0,0,1,586.481,61.676Z" transform="translate(-550.694 -52.509)" fill="#000"/>
    <path id="Path_203" data-name="Path 203" d="M621.45,52.821H617.7a.164.164,0,0,0-.162.164v9.787a.164.164,0,0,0,.162.164h3.835a4.961,4.961,0,0,0,5.141-5A5.057,5.057,0,0,0,621.45,52.821Zm.086,8.771h-2.42a.164.164,0,0,1-.164-.164v-7.1a.165.165,0,0,1,.164-.165h2.334a3.654,3.654,0,0,1,3.785,3.77A3.564,3.564,0,0,1,621.536,61.592Z" transform="translate(-557.386 -52.509)" fill="#000"/>
    <path id="Path_204" data-name="Path 204" d="M659.032,62.936h-6.466a.14.14,0,0,1-.14-.14V52.961a.14.14,0,0,1,.14-.14H653.7a.139.139,0,0,1,.14.14v8.492a.139.139,0,0,0,.14.14h5.565a.14.14,0,0,1,.126.2l-.512,1.064A.14.14,0,0,1,659.032,62.936Z" transform="translate(-564.119 -52.509)" fill="#000"/>
    <path id="Path_205" data-name="Path 205" d="M608.185,62.846h-1.227a.113.113,0,0,1-.1-.063l-.772-1.562a.112.112,0,0,0-.1-.062h-4.413a.112.112,0,0,1-.1-.163l.539-1.057a.112.112,0,0,1,.1-.061l3.139-.006a.112.112,0,0,0,.1-.161l-2.26-4.586-.016-.041-.018.047L599.271,62.8a.112.112,0,0,1-.1.063h-1.191a.112.112,0,0,1-.1-.162l5.1-10.2a.112.112,0,0,1,.2,0l5.108,10.188A.112.112,0,0,1,608.185,62.846Z" transform="translate(-553.589 -52.435)" fill="#000"/>
    <path id="Path_206" data-name="Path 206" d="M644.063,62.846h-1.228a.113.113,0,0,1-.1-.063l-.771-1.562a.112.112,0,0,0-.1-.062h-4.413a.112.112,0,0,1-.1-.163l.539-1.057a.111.111,0,0,1,.1-.061l3.139-.006a.112.112,0,0,0,.1-.161l-2.26-4.586-.016-.041-.019.047L635.149,62.8a.113.113,0,0,1-.1.063h-1.191a.112.112,0,0,1-.1-.162l5.1-10.2a.112.112,0,0,1,.2,0l5.108,10.188A.112.112,0,0,1,644.063,62.846Z" transform="translate(-560.514 -52.435)" fill="#000"/>
    <path id="Path_207" data-name="Path 207" d="M675.905,62.846h-1.228a.11.11,0,0,1-.1-.063l-.772-1.562a.111.111,0,0,0-.1-.062h-4.414a.112.112,0,0,1-.1-.163l.538-1.057a.113.113,0,0,1,.1-.061l3.138-.006a.112.112,0,0,0,.1-.161l-2.26-4.586-.016-.041-.018.047L666.991,62.8a.111.111,0,0,1-.1.063H665.7a.112.112,0,0,1-.1-.162l5.1-10.2a.112.112,0,0,1,.2,0l5.109,10.188A.112.112,0,0,1,675.905,62.846Z" transform="translate(-566.659 -52.435)" fill="#000"/>
  </g>
  <g id="Group_199" data-name="Group 199" transform="translate(34.279 0)">
    <path id="Path_208" data-name="Path 208" d="M622.115,30.881c-.111,1.457,1.927.847,2.472.513A3.385,3.385,0,0,0,626,30.057c.673-1.135-.023-1.812-.587-1.882a1.605,1.605,0,0,0-1.511.994,2.83,2.83,0,0,0-.267,1.535c-.826.479-.834-.391-.821-.734.007-.186.019-.471.051-.7.09-.64-.1-.48-.541-.1a26.93,26.93,0,0,1-5.057,3.3,60.293,60.293,0,0,1-13.815,4.618c-7.955,1.856-15.708,1.46-16.921-.571s4.97-5.591,5.387-5.834-.079-.4-.356-.261c0,0-7.369,4-5.89,6.851s9.019,2.788,17.007,1.118c13.239-2.768,18.668-7.662,19.281-8.031C622.279,30.157,622.144,30.505,622.115,30.881Z" transform="translate(-585.477 -19.124)" fill="#000"/>
    <path id="Path_209" data-name="Path 209" d="M616.833,25.031a14.874,14.874,0,0,0-3.315.681c-.537.168-.855.39-.88.593-.019.163.077.222.535.176a47.5,47.5,0,0,1,5.2-.6c2.059,0,3.272.265,3.682.794.475.614-1.323,2.931-7.995,5.205a74,74,0,0,1-19.942,3.928c-.477.037-.726.258.164.422,1.326.245,8.1.372,17-2.444s12.348-5.969,11.395-7.638C622.256,25.412,620.379,24.675,616.833,25.031Z" transform="translate(-587.062 -18.501)" fill="#000"/>
    <path id="Path_210" data-name="Path 210" d="M604.58,20.846a8.694,8.694,0,0,1,8.251-.307,8.923,8.923,0,0,1,4.078,12.541,9.286,9.286,0,0,1-7.779,4.739,26.333,26.333,0,0,1-5.072-.263c-.567-.1-.6.267-.236.378,1.608.485,6.114,1.7,10.4-.7,4.693-2.632,5.675-6.935,4.567-11.344C617.568,21.039,613.11,18.4,608.4,18.6c-2.658.112-4.061,1.536-4.268,2.081C604.01,21,604.22,21.09,604.58,20.846Z" transform="translate(-588.972 -17.275)" fill="#000"/>
    <path id="Path_211" data-name="Path 211" d="M601.162,23.15c.424-.462.6-.621.809-.825.134-.132-.314-.43-1.087.024a9.662,9.662,0,0,0-3.331,5.528,8.935,8.935,0,0,0,2.493,7.831c1.152.95,1.194.372,1,.181a9.628,9.628,0,0,1-2.312-4.438A8.113,8.113,0,0,1,599,26.6,12,12,0,0,1,601.162,23.15Z" transform="translate(-587.782 -17.954)" fill="#000"/>
    <path id="Path_212" data-name="Path 212" d="M614.725,27.04a37.364,37.364,0,0,0-10.764-3.622c-.691-.118-1.045.461-.434.573a41.446,41.446,0,0,1,11.141,3.429c.065.03.212.035.261-.049C614.991,27.266,614.923,27.15,614.725,27.04Z" transform="translate(-588.9 -18.204)" fill="#000"/>
    <path id="Path_213" data-name="Path 213" d="M616.526,30.232c-5.232-2.727-12.011-3.854-14.892-4.16-.63-.068-.931.611-.371.675a48.4,48.4,0,0,1,15.111,3.816c.075.035.216.081.293-.023C616.726,30.462,616.709,30.327,616.526,30.232Z" transform="translate(-588.467 -18.719)" fill="#000"/>
    <path id="Path_214" data-name="Path 214" d="M600.7,29.979a62.981,62.981,0,0,1,13.342,2.026c.131.037.226-.014.249-.116s-.04-.2-.213-.248a48.344,48.344,0,0,0-13.3-2.335C600.187,29.306,599.9,29.952,600.7,29.979Z" transform="translate(-588.32 -19.344)" fill="#000"/>
    <path id="Path_215" data-name="Path 215" d="M609.209,19.452l.24-.094h0v-.123h0l0-.084h-.063c-1.168,0-2.39.921-3.388,2.554A15.121,15.121,0,0,0,604.09,29c-.186,6.279,1.736,11.715,4.008,11.783h.029a1.375,1.375,0,0,0,1.4-1.219c.011-.071.038-.346-.119-.362-.141-.015-.2.14-.276.313a.922.922,0,0,1-1,.487c-.742-.035-1.624-1.086-2.24-3.345a26.043,26.043,0,0,1-.974-7.994C605.2,22.654,607.606,19.38,609.209,19.452Z" transform="translate(-589.067 -17.383)" fill="#000"/>
    <path id="Path_216" data-name="Path 216" d="M615.06,38.582s-.031-.254-.17-.251h0c-.118,0-.121.167-.14.27-.065.366-.21.621-.474.684a.592.592,0,0,1-.375-.107c-1.106-.746-2.841-4.978-3.456-10.086-.684-5.7.769-9.349,1.779-9.628l.167-.13h0l-.023-.082a.892.892,0,0,0-.174.076l-.1,0h0l-.024-.082c-1.661.5-2.943,5.049-2.206,11.022.631,5.1,2.271,8.666,3.629,9.556a1.083,1.083,0,0,0,.642.207.784.784,0,0,0,.184-.031A1.252,1.252,0,0,0,615.06,38.582Z" transform="translate(-590.142 -17.402)" fill="#000"/>
    <path id="Path_217" data-name="Path 217" d="M615.239,30.775c-.036-.125-.061-.218-.187-.734a21.147,21.147,0,0,1-.6-8.012l.025-.128c.028-.15-.011-.236-.1-.249a.222.222,0,0,0-.228.207c0,.015-.015.045-.023.09a21.173,21.173,0,0,0,.477,9.044C614.808,31.667,615.39,31.3,615.239,30.775Z" transform="translate(-590.952 -17.866)" fill="#000"/>
    <ellipse id="Ellipse_27" data-name="Ellipse 27" cx="0.762" cy="0.762" rx="0.762" ry="0.762" transform="translate(12.617 2.121)" fill="#000"/>
    <ellipse id="Ellipse_28" data-name="Ellipse 28" cx="0.762" cy="0.762" rx="0.762" ry="0.762" transform="translate(36.005 14.146)" fill="#000"/>
    <ellipse id="Ellipse_29" data-name="Ellipse 29" cx="1.006" cy="1.006" rx="1.006" ry="1.006" transform="translate(13.759)" fill="#000"/>
    <path id="Path_218" data-name="Path 218" d="M626.815,36.491a4.353,4.353,0,0,0-1.533-2.1c-.446-.374-.893-.141-.47.211.44.366,3.286,3.381-.776,3.574-1.3.062-3.924-.162-8.994-1.528-.3-.081-.618-.17-.951-.268-.39-.114-.8-.237-1.23-.374-.616-.192-1.266-.408-1.948-.642-.634-.221-1.3-.458-1.975-.713q-.58-.217-1.177-.451l-.175-.069c-.346-.138-.7-.278-1.047-.423-.143-.058-.285-.117-.428-.178-1.162-.484-2.364-1.085-3.529-1.645q-.529-.251-1.051-.513c-1.479-.744-2.919-1.542-4.245-2.382q-.551-.346-1.072-.705c-.7-.481-1.719-1.2-2.327-1.7-4.6-3.811-.073-3.824,4.735-3.23.319.039.641.082.964.127l.439-.728c-.252-.039-.5-.075-.738-.109-3.676-.505-6.186-.315-7.227.345-.7.442-1.624,1.7,1.31,4.217a32.76,32.76,0,0,0,2.769,2.107q.563.391,1.172.782c1.3.838,2.74,1.687,4.284,2.506.351.187.707.374,1.069.556.487.249.986.494,1.491.734s1.035.484,1.562.72q.546.242,1.1.478l.114.048q.483.2.975.4t.974.382h0c.914.351,1.839.678,2.767.977q.609.2,1.219.38.637.188,1.274.359c5.736,1.536,8.953,1.7,10.8,1.3a.047.047,0,0,0,.016,0C625.068,38.91,627.22,38.451,626.815,36.491Z" transform="translate(-586.61 -18.003)" fill="#000"/>
  </g>
</svg>
